{"glyphs":{"0":{"ha":789,"x_min":89,"x_max":701,"o":"m 89 471 q 94 582 89 525 q 111 694 98 640 q 144 797 123 748 q 200 881 166 845 q 282 939 234 918 q 395 960 330 960 q 502 940 456 960 q 583 886 549 920 q 640 804 616 851 q 676 703 663 757 q 695 589 690 648 q 701 471 701 530 q 695 353 701 412 q 676 240 690 294 q 640 139 663 186 q 583 57 616 92 q 502 2 549 22 q 395 -18 456 -18 q 282 4 330 -18 q 200 61 234 25 q 144 146 166 98 q 111 249 123 195 q 94 360 98 303 q 89 471 89 418 m 571 471 q 562 628 571 559 q 533 747 553 698 q 479 822 513 795 q 395 848 445 848 q 307 818 341 848 q 252 736 272 787 q 225 616 233 685 q 218 471 218 548 q 225 326 218 395 q 252 207 233 258 q 307 125 272 155 q 395 95 341 95 q 479 121 445 95 q 533 196 513 147 q 562 314 553 245 q 571 471 571 384 z "},"1":{"ha":513,"x_min":28,"x_max":377,"o":"m 250 632 q 250 648 250 638 q 250 671 250 659 q 251 696 250 683 q 251 722 251 709 q 252 787 252 753 q 146 705 197 739 q 59 650 96 671 l 28 766 q 62 787 42 774 q 106 817 83 800 q 153 850 129 833 q 199 884 177 867 q 238 913 220 900 q 265 934 255 926 l 377 934 l 377 0 l 250 0 l 250 632 z "},"2":{"ha":730,"x_min":67,"x_max":656,"o":"m 77 750 q 192 903 121 854 q 372 952 262 952 q 474 937 426 952 q 558 890 522 922 q 615 809 594 858 q 636 694 636 761 q 623 612 636 654 q 579 521 610 570 q 500 414 549 473 q 380 282 451 356 l 218 115 l 656 115 l 656 0 l 67 0 l 67 118 l 300 362 q 378 448 341 405 q 444 534 416 492 q 489 616 473 576 q 506 692 506 656 q 498 744 506 718 q 474 791 491 770 q 429 826 457 812 q 361 840 401 840 q 290 827 319 840 q 241 795 260 814 q 209 754 221 777 q 189 711 197 732 l 77 750 z "},"3":{"ha":756,"x_min":64,"x_max":671,"o":"m 350 -14 q 204 14 278 -14 q 68 100 131 41 l 115 209 q 168 163 139 183 q 229 130 197 143 q 291 110 260 117 q 352 103 322 103 q 423 113 389 103 q 482 143 456 123 q 523 194 507 163 q 538 267 538 224 q 515 352 538 320 q 457 401 493 384 q 375 423 420 418 q 283 429 330 429 q 274 428 280 429 q 261 428 267 428 l 246 428 l 246 540 q 257 539 252 539 q 267 538 262 538 q 275 538 271 538 q 365 545 321 538 q 442 570 408 552 q 496 620 476 589 q 517 702 517 652 q 505 758 517 732 q 470 802 492 783 q 417 830 448 820 q 349 840 386 840 q 249 818 304 840 q 130 745 193 795 l 64 827 q 209 921 132 890 q 356 952 285 952 q 469 936 416 952 q 563 888 522 920 q 627 812 603 857 q 650 708 650 766 q 640 642 650 674 q 609 581 630 610 q 558 528 589 552 q 486 487 527 504 q 578 441 542 470 q 635 381 614 413 q 664 318 656 350 q 671 264 671 287 q 645 146 671 198 q 573 59 618 95 q 471 5 529 24 q 350 -14 413 -14 z "},"4":{"ha":779,"x_min":45,"x_max":728,"o":"m 467 0 l 467 203 l 45 203 l 45 342 l 456 943 l 593 943 l 593 320 l 728 320 l 728 203 l 593 203 l 593 0 l 467 0 m 163 320 l 467 320 l 467 785 q 424 716 444 749 q 406 688 415 703 q 389 661 397 674 q 375 638 381 648 q 364 622 368 628 l 163 320 z "},"5":{"ha":737,"x_min":75,"x_max":665,"o":"m 376 595 q 497 573 444 595 q 588 512 551 551 q 645 419 625 473 q 665 301 665 365 q 643 172 665 230 q 577 73 620 114 q 472 9 534 32 q 331 -14 410 -14 q 245 -3 286 -14 q 171 27 204 7 q 112 76 137 47 q 75 145 87 106 l 155 201 q 188 154 167 174 q 234 122 209 134 q 285 103 258 109 q 335 97 311 97 q 430 115 391 97 q 491 161 468 132 q 525 225 515 189 q 534 298 534 262 q 484 437 534 388 q 343 486 434 486 q 289 478 314 486 q 245 459 264 470 q 210 435 225 448 q 186 411 195 422 l 120 430 l 120 934 l 608 934 l 608 818 l 235 818 l 214 547 q 283 580 243 565 q 376 595 324 595 z "},"6":{"ha":774,"x_min":87,"x_max":699,"o":"m 629 804 q 538 835 581 824 q 459 846 495 846 q 351 821 395 846 q 280 751 308 797 q 238 641 252 706 q 219 494 224 576 q 256 535 235 515 q 302 570 277 555 q 357 594 327 585 q 424 603 388 603 q 533 584 483 603 q 620 528 583 565 q 678 435 657 490 q 699 309 699 380 q 675 171 699 231 q 611 70 652 111 q 515 8 570 29 q 398 -14 460 -14 q 257 20 315 -14 q 160 111 198 53 q 104 248 122 169 q 87 417 87 326 q 93 537 87 475 q 116 659 100 600 q 159 772 132 719 q 226 865 186 825 q 322 929 267 905 q 452 952 378 952 q 553 939 498 952 q 669 897 608 926 l 629 804 m 400 96 q 464 107 433 96 q 519 145 495 119 q 557 209 543 170 q 571 302 571 248 q 564 369 571 335 q 537 432 556 404 q 486 478 518 460 q 405 496 454 496 q 327 480 361 496 q 270 438 293 465 q 235 379 247 412 q 222 311 222 346 q 235 230 222 269 q 270 161 247 191 q 325 113 292 131 q 400 96 358 96 z "},"7":{"ha":650,"x_min":41,"x_max":613,"o":"m 122 0 l 477 816 l 41 816 l 41 934 l 613 934 l 613 826 l 268 0 l 122 0 z "},"8":{"ha":789,"x_min":85,"x_max":703,"o":"m 394 -14 q 276 2 332 -14 q 178 50 220 18 q 110 131 135 82 q 85 247 85 180 q 98 328 85 292 q 135 394 111 364 q 192 447 159 423 q 267 491 226 471 q 150 582 193 526 q 108 709 108 637 q 125 795 108 751 q 177 873 142 838 q 266 930 212 908 q 393 952 319 952 q 511 935 458 952 q 602 887 564 918 q 661 811 640 856 q 682 711 682 766 q 638 583 682 640 q 513 494 595 526 q 578 458 545 479 q 640 410 612 438 q 685 342 667 381 q 703 252 703 304 q 684 151 703 199 q 626 66 665 103 q 529 8 587 30 q 394 -14 471 -14 m 393 97 q 476 111 442 97 q 532 147 511 125 q 562 198 553 170 q 572 256 572 227 q 558 322 572 292 q 519 374 544 351 q 461 412 494 397 q 388 436 427 428 q 317 410 349 427 q 263 369 286 393 q 228 316 240 345 q 216 252 216 286 q 225 195 216 222 q 257 145 235 167 q 312 110 278 123 q 393 97 345 97 m 237 708 q 249 648 237 674 q 282 602 261 621 q 332 569 304 582 q 394 551 361 557 q 456 570 427 557 q 507 603 486 583 q 542 650 529 623 q 554 708 554 676 q 543 764 554 739 q 512 807 532 789 q 461 834 491 825 q 395 844 432 844 q 331 835 360 844 q 281 808 302 826 q 249 765 260 791 q 237 708 237 740 z "},"9":{"ha":768,"x_min":71,"x_max":681,"o":"m 157 138 q 249 105 206 117 q 326 94 291 94 q 413 115 373 94 q 481 180 452 136 q 527 292 510 224 q 548 456 545 360 q 454 377 505 401 q 348 352 404 352 q 238 371 289 352 q 151 426 188 389 q 93 516 114 463 q 71 642 71 570 q 95 777 71 719 q 158 873 118 835 q 250 932 197 912 q 362 951 303 951 q 440 943 401 951 q 515 913 479 934 q 581 859 550 893 q 633 775 611 825 q 668 658 656 726 q 681 501 681 590 q 655 279 681 375 q 584 118 630 182 q 474 20 538 53 q 333 -14 410 -14 q 229 1 284 -14 q 113 41 174 16 l 157 138 m 367 456 q 439 470 407 456 q 494 508 471 484 q 529 564 517 532 q 541 631 541 596 q 529 715 541 677 q 493 783 516 754 q 438 827 470 811 q 368 843 406 843 q 298 829 329 843 q 245 789 267 815 q 212 725 224 762 q 200 641 200 688 q 212 564 200 598 q 244 505 223 529 q 297 469 266 481 q 367 456 328 456 z "},"\u0002":{"ha":0,"x_min":0,"x_max":0,"o":""},"\t":{"ha":0,"x_min":0,"x_max":0,"o":""},"\n":{"ha":0,"x_min":0,"x_max":0,"o":""}," ":{"ha":356,"x_min":0,"x_max":0,"o":""},"!":{"ha":359,"x_min":109,"x_max":250,"o":"m 218 230 l 142 230 l 109 945 l 250 945 l 218 230 m 109 143 l 250 143 l 250 0 l 109 0 l 109 143 z "},"\"":{"ha":517,"x_min":83,"x_max":433,"o":"m 209 934 l 209 593 l 115 593 l 83 934 l 209 934 m 433 934 l 402 593 l 321 593 l 321 934 l 433 934 z "},"#":{"ha":864,"x_min":58,"x_max":805,"o":"m 640 559 l 602 366 l 755 366 l 755 267 l 584 267 l 534 0 l 425 0 l 475 267 l 311 267 l 260 0 l 153 0 l 203 267 l 58 267 l 58 366 l 222 366 l 258 559 l 108 559 l 108 659 l 277 659 l 328 934 l 437 934 l 385 659 l 551 659 l 602 934 l 711 934 l 657 659 l 805 659 l 805 559 l 640 559 m 330 366 l 494 366 l 532 559 l 366 559 l 330 366 z "},"$":{"ha":745,"x_min":61,"x_max":682,"o":"m 328 26 q 243 36 283 27 q 167 65 202 45 q 105 117 132 85 q 61 193 78 149 q 101 221 81 208 q 140 248 120 233 q 167 212 151 230 q 206 179 183 194 q 259 153 229 163 q 328 140 290 142 l 328 427 q 209 472 257 448 q 131 525 161 495 q 89 592 102 554 q 77 680 77 629 q 97 773 77 732 q 153 841 118 813 q 234 886 188 869 q 330 908 279 902 l 330 1019 l 414 1019 l 414 910 q 458 906 434 909 q 507 897 481 903 q 557 880 532 890 q 604 854 582 870 q 642 815 625 838 q 667 762 658 793 l 568 718 q 543 752 558 738 q 507 776 527 766 q 464 791 487 785 q 414 799 440 796 l 414 534 q 510 498 463 519 q 596 448 558 478 q 658 377 634 418 q 682 277 682 335 q 660 177 682 220 q 601 103 638 134 q 515 54 564 73 q 412 29 467 36 l 412 -109 l 328 -109 l 328 26 m 548 269 q 537 315 548 295 q 508 351 526 335 q 465 378 490 366 q 414 400 441 390 l 414 144 q 474 160 449 148 q 516 189 500 172 q 540 227 532 206 q 548 269 548 247 m 207 684 q 216 639 207 658 q 242 606 225 620 q 281 581 258 591 q 330 560 303 570 l 330 797 q 266 776 290 789 q 229 747 242 763 q 211 714 216 731 q 207 684 207 698 z "},"%":{"ha":1114,"x_min":56,"x_max":1059,"o":"m 161 684 q 165 623 161 654 q 179 566 168 592 q 210 524 190 541 q 264 507 231 507 q 316 524 296 507 q 347 567 336 541 q 361 625 357 593 q 365 685 365 656 q 360 754 365 722 q 344 810 355 786 q 313 848 332 834 q 264 863 294 863 q 210 846 231 863 q 179 803 190 829 q 165 746 168 777 q 161 684 161 714 m 471 688 q 457 571 471 622 q 415 487 442 521 q 349 435 388 453 q 262 418 311 418 q 178 434 216 418 q 113 485 140 451 q 71 568 86 518 q 56 684 56 617 q 68 794 56 745 q 108 879 81 844 q 174 933 134 914 q 269 953 214 953 q 360 933 322 953 q 424 878 399 913 q 460 794 448 842 q 471 688 471 745 m 750 245 q 754 182 750 213 q 769 128 758 151 q 800 90 781 104 q 850 76 819 76 q 903 92 883 76 q 935 133 924 107 q 951 190 947 158 q 955 254 955 222 q 950 318 955 286 q 935 375 946 350 q 903 417 924 401 q 852 433 883 433 q 799 415 819 433 q 768 371 779 398 q 753 310 757 343 q 750 245 750 277 m 1059 256 q 1047 143 1059 193 q 1008 58 1034 94 q 944 4 983 23 q 851 -15 905 -15 q 755 6 794 -15 q 691 64 715 28 q 655 149 666 100 q 644 252 644 197 q 659 368 644 317 q 701 452 673 418 q 766 504 728 486 q 851 521 804 521 q 896 516 872 521 q 943 499 920 511 q 987 468 966 488 q 1024 418 1008 448 q 1050 349 1040 389 q 1059 256 1059 309 m 885 962 q 745 713 814 836 q 605 467 675 590 q 466 221 536 344 q 326 -27 397 98 l 224 -27 l 784 962 l 885 962 z "},"&":{"ha":985,"x_min":66,"x_max":979,"o":"m 66 256 q 81 350 66 308 q 121 426 96 391 q 182 490 147 461 q 258 547 218 519 q 222 589 240 566 q 189 639 204 612 q 164 699 174 667 q 155 770 155 732 q 171 858 155 819 q 220 925 188 897 q 298 968 252 953 q 406 983 345 983 q 500 970 456 983 q 578 933 545 958 q 631 870 612 908 q 650 780 650 831 q 633 695 650 734 q 588 626 615 657 q 528 570 561 595 q 466 526 496 545 l 688 299 q 718 349 705 323 q 740 405 730 375 q 754 470 749 434 q 764 551 760 506 l 895 551 q 880 447 890 494 q 856 361 871 401 q 820 285 841 321 q 772 214 800 249 l 979 1 l 804 1 l 688 116 q 619 61 654 85 q 546 20 584 37 q 465 -6 507 3 q 374 -15 422 -15 q 244 5 301 -15 q 147 60 186 24 q 86 146 107 96 q 66 256 66 195 m 385 102 q 457 111 425 102 q 517 134 490 120 q 565 165 543 148 q 603 199 586 182 q 516 284 559 240 q 433 370 473 328 l 342 464 q 279 414 306 438 q 236 366 253 390 q 212 315 220 341 q 203 260 203 289 q 219 189 203 218 q 261 140 235 159 q 319 112 287 121 q 385 102 352 102 m 290 773 q 314 695 290 734 q 382 612 338 656 q 430 645 406 627 q 472 684 453 663 q 503 728 491 705 q 514 778 514 751 q 507 812 514 795 q 487 842 500 829 q 453 863 474 855 q 406 871 433 871 q 358 864 380 871 q 322 843 337 857 q 298 812 307 830 q 290 773 290 794 z "},"'":{"ha":296,"x_min":101,"x_max":212,"o":"m 181 593 l 101 593 l 101 934 l 212 934 l 181 593 z "},"(":{"ha":393,"x_min":68,"x_max":347,"o":"m 68 406 q 83 568 68 486 q 123 727 98 650 q 178 869 147 803 q 239 983 209 935 l 345 983 q 284 848 312 920 q 237 700 257 775 q 206 549 217 624 q 195 408 195 474 q 204 267 195 335 q 232 129 214 199 q 279 -17 251 58 q 347 -177 308 -92 l 243 -177 q 173 -43 205 -114 q 118 102 141 28 q 81 254 94 177 q 68 406 68 330 z "},")":{"ha":393,"x_min":45,"x_max":325,"o":"m 149 983 q 219 847 186 918 q 275 700 251 775 q 312 548 298 625 q 325 395 325 471 q 310 233 325 315 q 270 75 294 151 q 215 -66 245 -1 q 154 -177 184 -131 l 49 -177 q 109 -43 81 -112 q 156 98 136 26 q 186 244 175 170 q 197 395 197 319 q 188 537 197 468 q 160 676 178 606 q 113 821 141 746 q 45 983 84 897 l 149 983 z "},"*":{"ha":643,"x_min":74,"x_max":569,"o":"m 143 905 l 228 957 l 321 802 l 414 957 l 500 905 l 410 758 l 569 758 l 569 657 l 409 657 l 499 511 l 414 459 l 321 613 l 228 459 l 142 511 l 231 657 l 74 657 l 74 758 l 231 758 l 143 905 z "},"+":{"ha":761,"x_min":59,"x_max":702,"o":"m 324 342 l 59 342 l 59 451 l 324 451 l 324 718 l 435 718 l 435 451 l 702 451 l 702 342 l 435 342 l 435 77 l 324 77 l 324 342 z "},",":{"ha":352,"x_min":39,"x_max":265,"o":"m 39 -168 l 115 165 l 265 165 l 134 -168 l 39 -168 z "},"-":{"ha":526,"x_min":97,"x_max":429,"o":"m 97 298 l 97 411 l 429 411 l 429 298 l 97 298 z "},".":{"ha":351,"x_min":97,"x_max":254,"o":"m 97 162 l 254 162 l 254 0 l 97 0 l 97 162 z "},"/":{"ha":537,"x_min":50,"x_max":488,"o":"m 488 982 l 159 -12 l 50 -12 l 381 982 l 488 982 z "},":":{"ha":351,"x_min":97,"x_max":254,"o":"m 97 691 l 254 691 l 254 529 l 97 529 l 97 691 m 97 162 l 254 162 l 254 0 l 97 0 l 97 162 z "},";":{"ha":393,"x_min":66,"x_max":286,"o":"m 66 -158 l 140 155 l 273 155 l 149 -158 l 66 -158 m 130 690 l 286 690 l 286 528 l 130 528 l 130 690 z "},"<":{"ha":789,"x_min":52,"x_max":695,"o":"m 695 75 l 52 346 l 52 441 l 695 728 l 695 610 l 199 397 l 695 196 l 695 75 z "},"=":{"ha":860,"x_min":109,"x_max":751,"o":"m 109 475 l 109 583 l 751 583 l 751 475 l 109 475 m 109 209 l 109 319 l 751 319 l 751 209 l 109 209 z "},">":{"ha":789,"x_min":94,"x_max":737,"o":"m 94 196 l 591 397 l 94 610 l 94 728 l 737 441 l 737 346 l 94 75 l 94 196 z "},"?":{"ha":598,"x_min":44,"x_max":545,"o":"m 192 229 l 192 283 q 195 344 192 317 q 207 396 198 371 q 234 446 216 421 q 279 498 251 470 q 333 554 309 528 q 375 607 358 581 q 402 659 393 633 q 412 713 412 685 q 396 779 412 753 q 355 820 379 805 q 302 840 330 834 q 252 846 275 846 q 175 836 222 846 q 64 798 127 826 l 44 914 q 138 946 85 932 q 256 961 192 961 q 376 945 323 961 q 467 897 430 928 q 525 821 505 866 q 545 720 545 777 q 535 644 545 677 q 507 582 526 612 q 460 523 488 553 q 393 458 431 494 q 346 412 364 431 q 317 374 328 393 q 303 333 307 355 q 300 277 300 311 l 300 229 l 192 229 m 174 143 l 318 143 l 318 0 l 174 0 l 174 143 z "},"@":{"ha":1114,"x_min":66,"x_max":1054,"o":"m 566 -52 q 360 -18 452 -52 q 203 80 268 16 q 102 235 138 144 q 66 439 66 326 q 85 594 66 522 q 139 728 104 667 q 223 836 174 788 q 332 916 272 883 q 460 965 391 948 q 602 983 528 983 q 777 954 694 983 q 920 870 859 926 q 1018 734 982 815 q 1054 547 1054 652 q 1034 413 1054 475 q 980 303 1015 350 q 901 230 946 257 q 804 203 855 203 q 723 235 752 203 q 691 329 693 267 q 659 284 677 307 q 620 244 641 262 q 571 215 600 226 q 509 203 543 203 q 429 219 465 203 q 367 265 393 235 q 328 337 342 295 q 319 431 315 378 q 338 545 319 490 q 390 644 357 601 q 473 713 423 687 q 585 739 523 739 q 653 724 619 739 q 718 678 688 708 q 720 694 718 686 q 722 709 721 702 q 725 724 724 716 l 819 711 l 769 438 q 762 391 764 412 q 760 353 760 370 q 774 296 760 313 q 820 280 789 280 q 877 301 850 280 q 925 358 904 321 q 958 444 946 394 q 970 551 970 493 q 941 703 970 637 q 862 813 912 769 q 744 879 811 857 q 602 901 677 901 q 420 869 503 901 q 277 776 337 836 q 183 630 217 715 q 150 439 150 545 q 179 266 150 342 q 263 137 209 190 q 395 56 318 84 q 568 28 472 28 q 658 36 614 28 q 742 57 702 44 q 820 88 783 71 q 892 124 858 105 l 913 49 q 754 -24 839 3 q 566 -52 670 -52 m 530 287 q 580 297 559 287 q 614 325 601 308 q 637 365 627 342 q 656 410 648 387 q 669 456 664 433 q 680 497 675 479 l 704 637 q 657 647 680 643 q 622 654 638 650 q 597 657 606 657 q 521 635 555 657 q 464 579 488 613 q 430 504 441 545 q 418 425 418 463 q 448 323 420 359 q 530 287 477 287 z "},"A":{"ha":878,"x_min":13,"x_max":863,"o":"m 13 43 l 375 958 l 506 958 l 863 40 l 863 0 l 735 0 l 632 269 l 237 269 l 132 0 l 13 0 l 13 43 m 371 629 l 281 385 l 589 385 l 501 629 l 437 812 l 371 629 z "},"B":{"ha":861,"x_min":129,"x_max":789,"o":"m 129 958 l 437 958 q 573 945 513 958 q 675 904 633 932 q 739 828 717 875 q 761 715 761 782 q 747 637 761 671 q 712 577 734 603 q 662 532 690 551 q 605 502 634 513 q 671 475 638 492 q 730 431 705 458 q 772 365 756 404 q 789 271 789 326 q 779 196 789 230 q 754 135 769 162 q 721 89 739 109 q 686 56 703 68 l 687 57 q 586 13 644 26 q 467 0 528 0 l 129 0 l 129 958 m 262 557 l 432 557 q 499 562 465 557 q 561 583 534 568 q 606 628 589 599 q 623 703 623 656 q 607 776 623 749 q 564 818 591 804 q 501 837 536 832 q 428 841 466 841 l 262 841 l 262 557 m 262 439 l 262 115 l 460 115 q 601 158 553 115 q 650 280 650 200 q 639 343 650 315 q 605 394 628 372 q 545 427 581 415 q 459 439 509 439 l 262 439 z "},"C":{"ha":838,"x_min":71,"x_max":788,"o":"m 788 63 q 633 2 707 22 q 495 -18 560 -18 q 364 2 423 -18 q 258 55 304 21 q 176 135 211 89 q 117 236 140 182 q 83 350 94 290 q 71 471 71 410 q 83 596 71 534 q 119 715 95 659 q 178 819 142 771 q 260 903 214 867 q 365 958 307 938 q 492 978 423 978 q 583 967 539 978 q 665 932 627 956 q 733 870 703 909 q 781 775 763 831 l 663 747 q 635 802 652 780 q 596 836 618 823 q 548 854 574 849 q 494 860 522 860 q 373 828 426 860 q 285 743 321 796 q 231 619 249 689 q 212 473 212 549 q 230 336 212 403 q 284 217 248 269 q 376 133 321 165 q 508 101 432 101 q 617 118 559 101 q 743 168 675 134 l 788 63 z "},"D":{"ha":949,"x_min":129,"x_max":874,"o":"m 874 479 q 862 352 874 410 q 831 246 850 294 q 786 162 811 199 q 732 98 760 125 q 660 51 699 70 q 577 21 621 32 q 485 5 534 9 q 385 0 437 0 l 129 0 l 129 958 l 401 958 q 498 952 450 958 q 592 934 547 947 q 680 897 638 920 q 757 835 722 873 q 845 675 815 767 q 874 479 874 583 m 732 474 q 729 538 732 501 q 716 613 726 574 q 689 690 707 652 q 645 758 672 728 q 544 823 602 805 q 404 841 485 841 l 261 841 l 261 116 l 376 116 q 449 120 413 116 q 516 133 484 124 q 576 155 548 141 q 626 187 604 168 q 679 253 658 216 q 711 329 699 290 q 728 405 723 368 q 732 474 732 443 z "},"E":{"ha":772,"x_min":129,"x_max":690,"o":"m 690 0 l 129 0 l 129 958 l 684 958 l 684 839 l 262 839 l 262 555 l 660 555 l 660 436 l 262 436 l 262 121 l 690 121 l 690 0 z "},"F":{"ha":730,"x_min":130,"x_max":669,"o":"m 265 0 l 130 0 l 130 958 l 669 958 l 669 839 l 265 839 l 265 535 l 644 535 l 644 416 l 265 416 l 265 0 z "},"G":{"ha":928,"x_min":73,"x_max":835,"o":"m 698 736 q 668 797 686 773 q 627 835 650 821 q 576 854 604 849 q 520 860 549 860 q 404 838 460 860 q 305 770 348 817 q 236 651 262 724 q 210 477 210 578 q 227 330 210 399 q 282 211 244 262 q 381 131 320 160 q 532 101 443 101 q 627 107 588 101 q 696 119 666 113 l 706 119 l 706 509 l 835 509 l 835 37 q 765 16 801 26 q 690 -1 730 6 q 605 -13 650 -9 q 510 -18 561 -18 q 316 19 398 -18 q 179 122 233 56 q 99 278 125 188 q 73 475 73 368 q 91 633 73 562 q 138 761 108 705 q 211 858 169 817 q 302 925 253 899 q 407 965 352 952 q 517 978 461 978 q 610 967 562 978 q 702 931 659 957 q 779 864 745 906 q 832 758 814 821 l 698 736 z "},"H":{"ha":961,"x_min":130,"x_max":831,"o":"m 831 0 l 698 0 l 698 434 l 263 434 l 263 0 l 130 0 l 130 959 l 263 959 l 263 555 l 698 555 l 698 959 l 831 959 l 831 0 z "},"I":{"ha":391,"x_min":130,"x_max":262,"o":"m 130 0 l 130 958 l 262 958 l 262 0 l 130 0 z "},"J":{"ha":390,"x_min":-103,"x_max":261,"o":"m -79 -25 q -27 -37 -53 -33 q 21 -42 -2 -42 q 64 -35 44 -42 q 99 -11 84 -28 q 121 37 113 7 q 130 112 130 66 l 130 958 l 261 958 l 261 113 q 244 -9 261 42 q 199 -93 228 -60 q 133 -142 171 -126 q 52 -158 95 -158 q -25 -147 14 -158 q -103 -114 -64 -136 l -79 -25 z "},"K":{"ha":835,"x_min":130,"x_max":844,"o":"m 844 0 l 670 0 l 300 479 l 262 431 l 262 0 l 130 0 l 130 958 l 262 958 l 262 522 l 335 608 l 643 958 l 814 958 l 425 532 l 844 0 z "},"L":{"ha":695,"x_min":129,"x_max":672,"o":"m 129 0 l 129 958 l 262 958 l 262 122 l 672 122 l 672 0 l 129 0 z "},"M":{"ha":1213,"x_min":129,"x_max":1084,"o":"m 952 0 l 952 498 q 952 539 952 508 q 953 612 953 571 q 954 697 954 652 q 955 777 954 741 l 939 780 l 659 0 l 541 0 l 270 772 l 253 770 q 254 690 254 734 q 256 606 255 646 q 257 535 256 566 q 257 494 257 504 l 257 0 l 129 0 l 129 958 l 342 958 l 603 171 l 879 958 l 1084 958 l 1084 0 l 952 0 z "},"N":{"ha":1008,"x_min":130,"x_max":879,"o":"m 130 0 l 130 958 l 296 958 l 743 207 l 758 210 q 757 260 758 232 q 756 318 757 288 q 755 378 755 349 q 754 434 755 408 q 754 477 754 459 q 754 503 754 496 l 754 958 l 879 958 l 879 0 l 718 0 l 262 762 l 248 758 q 249 707 249 736 q 250 648 250 679 q 251 586 251 617 q 252 530 252 555 q 252 485 252 504 q 252 458 252 465 l 252 0 l 130 0 z "},"O":{"ha":1006,"x_min":76,"x_max":930,"o":"m 503 -18 q 362 1 425 -18 q 253 53 300 20 q 172 132 205 86 q 117 233 138 178 q 86 350 96 288 q 76 477 76 412 q 86 606 76 543 q 119 725 97 669 q 175 827 141 781 q 257 907 210 873 q 366 959 304 941 q 503 978 427 978 q 641 959 579 978 q 749 907 702 941 q 831 827 797 873 q 887 725 865 781 q 919 606 909 669 q 930 477 930 543 q 920 350 930 412 q 889 233 910 288 q 834 132 868 178 q 753 53 801 86 q 644 1 706 20 q 503 -18 582 -18 m 503 101 q 643 132 587 101 q 730 214 698 162 q 776 335 763 267 q 789 480 789 404 q 775 629 789 559 q 728 749 762 698 q 640 830 695 801 q 503 860 585 860 q 366 830 421 860 q 278 749 311 801 q 231 629 245 698 q 216 480 216 559 q 230 335 216 404 q 275 214 243 267 q 363 132 308 162 q 503 101 418 101 z "},"P":{"ha":787,"x_min":130,"x_max":747,"o":"m 747 685 q 729 575 747 627 q 670 484 711 524 q 559 421 628 445 q 387 398 490 398 l 262 398 l 262 0 l 130 0 l 130 958 l 412 958 q 545 943 484 958 q 651 897 606 929 q 721 812 696 865 q 747 685 747 760 m 262 513 l 327 513 q 395 514 361 513 q 460 519 429 515 q 518 534 492 524 q 565 564 545 545 q 596 613 585 583 q 608 685 608 642 q 591 765 608 734 q 546 813 574 795 q 482 836 518 830 q 408 842 446 842 l 262 842 l 262 513 z "},"Q":{"ha":995,"x_min":75,"x_max":924,"o":"m 917 490 q 908 377 917 435 q 876 263 899 319 q 816 155 854 207 q 722 62 779 104 q 771 47 744 56 q 826 28 798 39 q 879 5 853 17 q 924 -17 904 -6 l 885 -122 q 700 -59 791 -85 q 510 -15 608 -34 q 492 -16 500 -16 q 473 -16 483 -16 q 310 17 383 -16 q 184 113 236 50 q 104 268 132 176 q 75 477 75 359 q 86 606 75 543 q 120 725 98 669 q 177 827 142 781 q 257 907 211 873 q 363 959 304 941 q 494 978 422 978 q 631 960 570 978 q 739 909 692 942 q 820 832 786 877 q 875 732 853 787 q 907 616 897 678 q 917 490 917 555 m 216 475 q 230 336 216 404 q 277 216 244 269 q 363 133 309 164 q 495 101 416 101 q 597 118 553 101 q 673 163 642 134 q 725 229 705 191 q 758 309 746 267 q 774 394 770 351 q 779 477 779 437 q 762 638 779 567 q 709 758 744 709 q 621 834 673 808 q 497 861 568 861 q 396 843 439 861 q 322 797 353 826 q 271 729 291 768 q 238 647 250 690 q 221 560 226 604 q 216 475 216 515 z "},"R":{"ha":871,"x_min":130,"x_max":802,"o":"m 130 0 l 130 958 l 423 958 q 545 945 486 958 q 651 904 605 933 q 726 827 698 875 q 755 707 755 779 q 743 624 755 661 q 708 558 730 587 q 652 507 685 528 q 579 469 620 485 q 665 436 633 456 q 714 388 696 416 q 740 321 732 359 q 755 236 748 283 q 771 129 762 188 q 802 0 781 71 l 660 0 q 638 133 646 74 q 622 238 630 193 q 603 317 614 284 q 570 371 591 350 q 516 402 549 392 q 431 412 483 412 l 262 412 l 262 0 l 130 0 m 262 512 l 419 512 q 496 522 460 512 q 559 552 532 531 q 601 607 586 573 q 616 691 616 642 q 597 772 616 743 q 546 818 577 802 q 476 837 515 833 q 401 840 438 840 l 262 840 l 262 512 z "},"S":{"ha":743,"x_min":59,"x_max":674,"o":"m 332 101 q 428 113 387 101 q 494 147 468 125 q 533 197 520 168 q 545 260 545 226 q 534 319 545 294 q 497 365 522 345 q 433 404 473 385 q 339 441 394 422 q 218 496 267 467 q 138 559 169 525 q 95 634 108 593 q 81 726 81 675 q 104 834 81 787 q 168 913 127 882 q 263 962 208 945 q 380 978 317 978 q 517 956 446 978 q 661 885 587 934 l 609 786 q 491 843 547 825 q 383 860 434 860 q 256 825 300 860 q 211 728 211 790 q 220 669 211 694 q 252 626 230 645 q 308 590 273 606 q 395 557 343 574 q 540 495 485 526 q 625 430 595 464 q 664 357 654 396 q 674 272 674 319 q 651 151 674 205 q 586 60 629 98 q 481 2 543 22 q 340 -18 419 -18 q 208 2 278 -18 q 59 63 137 21 l 102 169 q 225 118 168 135 q 332 101 281 101 z "},"T":{"ha":773,"x_min":24,"x_max":750,"o":"m 453 0 l 321 0 l 321 839 l 24 839 l 24 958 l 750 958 l 750 839 l 453 839 l 453 0 z "},"U":{"ha":977,"x_min":118,"x_max":859,"o":"m 859 958 l 859 355 q 832 202 859 271 q 756 85 805 134 q 639 9 707 36 q 489 -18 571 -18 q 339 6 407 -18 q 221 78 271 31 q 145 196 172 125 q 118 360 118 267 l 118 958 l 251 958 l 251 352 q 272 228 251 277 q 328 151 294 179 q 405 113 362 123 q 492 102 448 102 q 581 114 543 102 q 644 145 618 125 q 687 191 671 165 q 712 245 703 217 q 725 302 722 273 q 728 355 728 330 l 728 958 l 859 958 z "},"V":{"ha":822,"x_min":10,"x_max":817,"o":"m 678 958 l 817 958 l 479 0 l 339 0 l 10 958 l 155 958 l 317 460 q 324 435 319 452 q 336 393 330 417 q 351 342 343 370 q 366 287 359 314 q 406 145 384 222 l 413 145 q 459 290 438 224 q 477 346 468 318 q 493 397 486 374 q 506 438 500 421 q 513 462 511 455 l 678 958 z "},"W":{"ha":1287,"x_min":26,"x_max":1261,"o":"m 289 0 l 26 958 l 167 958 q 228 718 197 839 q 290 479 260 597 q 298 440 292 467 q 310 382 303 414 q 323 314 317 349 q 336 248 330 279 q 346 195 342 218 q 349 165 349 172 l 366 163 l 386 248 q 424 404 407 334 q 456 531 441 473 q 485 640 471 589 q 513 740 499 690 q 541 843 526 790 q 572 958 555 895 l 724 958 l 861 449 q 879 390 869 424 q 899 319 889 355 q 916 250 908 283 q 925 194 923 217 l 943 193 l 971 320 q 983 373 977 347 q 994 420 989 399 q 1002 458 998 442 q 1008 480 1006 473 l 1126 958 l 1261 958 l 998 0 l 859 0 l 805 197 q 763 349 785 273 q 722 500 742 425 q 714 534 720 510 q 701 588 708 557 q 686 653 694 619 q 672 719 678 688 q 661 773 665 749 q 657 805 657 796 l 640 806 l 562 498 l 425 0 l 289 0 z "},"X":{"ha":855,"x_min":8,"x_max":842,"o":"m 842 0 l 680 0 l 423 406 l 159 0 l 8 0 l 345 500 l 39 958 l 197 958 l 434 595 l 669 958 l 822 958 l 511 500 l 842 0 z "},"Y":{"ha":796,"x_min":-6,"x_max":802,"o":"m 403 490 l 653 958 l 802 958 l 466 371 l 466 0 l 330 0 l 330 371 l -6 958 l 151 958 l 403 490 z "},"Z":{"ha":795,"x_min":60,"x_max":734,"o":"m 734 0 l 60 0 l 60 121 l 564 836 l 75 836 l 75 958 l 722 958 l 722 838 l 217 122 l 734 122 l 734 0 z "},"[":{"ha":413,"x_min":117,"x_max":366,"o":"m 366 -184 l 117 -184 l 117 975 l 366 975 l 366 884 l 233 884 l 233 -92 l 366 -92 l 366 -184 z "},"\\":{"ha":537,"x_min":50,"x_max":486,"o":"m 157 955 q 321 472 239 711 q 486 -11 404 232 l 380 -11 l 50 955 l 157 955 z "},"]":{"ha":414,"x_min":47,"x_max":297,"o":"m 47 -92 l 180 -92 l 180 884 l 47 884 l 47 975 l 297 975 l 297 -184 l 47 -184 l 47 -92 z "},"^":{"ha":747,"x_min":68,"x_max":675,"o":"m 68 355 l 329 937 l 416 937 l 675 355 l 559 355 l 372 795 l 184 355 l 68 355 z "},"_":{"ha":757,"x_min":71,"x_max":686,"o":"m 686 -185 l 71 -185 l 71 -98 l 686 -98 l 686 -185 z "},"`":{"ha":553,"x_min":110,"x_max":382,"o":"m 295 789 l 110 999 l 266 999 l 382 789 l 295 789 z "},"a":{"ha":705,"x_min":52,"x_max":617,"o":"m 104 623 q 163 656 132 642 q 228 683 195 671 q 296 700 262 694 q 361 706 330 706 q 454 693 410 706 q 531 654 498 681 q 583 585 564 627 q 602 484 602 543 l 602 204 q 604 121 602 158 q 609 56 606 83 q 617 0 612 24 l 503 0 q 499 43 500 12 q 496 113 497 74 q 447 51 473 75 q 392 12 420 26 q 334 -7 363 -2 q 275 -13 304 -13 q 182 1 224 -13 q 112 41 141 15 q 68 105 83 68 q 52 189 52 142 q 57 237 52 212 q 74 286 62 262 q 104 333 85 311 q 151 373 123 355 q 217 402 181 392 q 291 418 253 413 q 368 424 330 423 q 443 425 407 425 l 479 425 l 479 475 q 470 538 479 513 q 444 579 460 564 q 404 601 427 594 q 357 608 382 608 q 299 601 329 608 q 241 585 269 595 q 187 562 212 574 q 142 538 161 550 l 104 623 m 438 142 q 459 176 451 157 q 471 217 467 194 q 477 269 475 240 q 479 333 479 297 l 459 333 q 362 330 412 333 q 271 312 313 326 q 202 268 229 298 q 176 187 176 239 q 182 150 176 168 q 201 118 188 132 q 234 95 214 104 q 283 86 254 86 q 373 100 332 86 q 438 142 414 115 z "},"b":{"ha":785,"x_min":107,"x_max":718,"o":"m 107 958 l 235 958 l 234 717 l 232 604 q 265 642 246 623 q 307 674 283 660 q 359 697 330 688 q 422 706 387 706 q 557 678 501 706 q 649 602 613 650 q 701 490 684 553 q 718 354 718 426 q 701 209 718 276 q 648 93 684 142 q 555 15 612 43 q 417 -13 498 -13 q 371 -7 395 -13 q 322 11 347 -1 q 273 44 297 24 q 228 93 249 64 q 224 69 227 84 q 221 38 222 54 q 217 0 218 20 l 107 0 l 107 958 m 234 238 q 245 189 234 215 q 278 139 256 162 q 336 101 300 117 q 420 86 371 86 q 500 108 467 86 q 555 166 534 130 q 585 250 576 203 q 594 350 594 298 q 586 444 594 397 q 559 526 578 490 q 504 585 539 562 q 416 607 469 607 q 347 593 380 607 q 289 556 315 578 q 249 509 264 534 q 234 460 234 483 l 234 238 z "},"c":{"ha":651,"x_min":66,"x_max":608,"o":"m 585 59 q 473 5 532 22 q 359 -13 414 -13 q 250 8 303 -13 q 157 74 197 29 q 91 188 116 119 q 66 354 66 257 q 94 510 66 444 q 164 620 121 576 q 262 685 208 663 q 372 706 317 706 q 448 696 410 706 q 517 663 486 686 q 573 605 549 641 q 608 517 597 569 l 500 500 q 479 551 492 530 q 450 584 467 572 q 413 602 433 597 q 374 607 394 607 q 309 593 341 607 q 251 548 277 578 q 208 471 224 517 q 192 359 192 424 q 202 244 192 294 q 234 158 212 193 q 290 105 256 123 q 371 86 324 86 q 425 91 399 86 q 472 105 450 96 q 512 124 494 113 q 546 146 530 135 l 585 59 z "},"d":{"ha":786,"x_min":68,"x_max":678,"o":"m 678 0 l 568 0 q 564 38 566 20 q 560 69 562 54 q 557 93 559 84 q 512 44 536 64 q 464 11 488 24 q 415 -7 439 -1 q 368 -13 391 -13 q 230 15 288 -13 q 137 93 173 43 q 84 209 101 142 q 68 354 68 276 q 84 490 68 426 q 136 602 100 553 q 228 678 172 650 q 363 706 284 706 q 427 697 398 706 q 478 674 455 688 q 520 642 502 660 q 553 604 539 623 l 551 717 l 550 958 l 678 958 l 678 0 m 551 460 q 536 509 551 483 q 496 556 522 534 q 438 593 471 578 q 370 607 405 607 q 281 585 315 607 q 227 526 246 562 q 199 444 207 490 q 191 350 191 397 q 200 250 191 298 q 231 166 210 203 q 284 108 252 130 q 366 86 317 86 q 450 101 414 86 q 507 139 485 117 q 541 189 530 162 q 551 238 551 215 l 551 460 z "},"e":{"ha":707,"x_min":67,"x_max":645,"o":"m 627 56 q 582 31 606 43 q 528 9 557 18 q 461 -7 498 -1 q 377 -13 424 -13 q 249 11 306 -13 q 151 80 191 35 q 89 193 111 126 q 67 346 67 260 q 85 483 67 418 q 139 597 102 548 q 231 676 175 647 q 365 706 288 706 q 491 680 438 706 q 578 611 544 654 q 629 508 612 567 q 645 384 645 450 l 645 328 l 193 328 q 204 237 194 281 q 235 160 214 193 q 292 106 257 126 q 380 86 328 86 q 493 102 442 86 q 589 146 543 117 l 627 56 m 362 607 q 301 597 330 607 q 252 567 273 587 q 217 514 231 546 q 198 439 203 483 q 197 430 197 436 q 197 417 197 424 l 512 417 q 503 489 511 454 q 479 550 496 524 q 433 591 462 576 q 362 607 405 607 z "},"f":{"ha":465,"x_min":29,"x_max":481,"o":"m 440 593 l 285 593 l 285 0 l 157 0 l 157 593 l 29 593 l 29 682 l 157 694 l 157 720 q 167 824 157 779 q 200 898 176 868 q 263 943 223 928 q 363 958 302 958 q 422 952 391 958 q 481 940 453 947 l 465 837 q 422 844 444 841 q 380 847 400 847 q 331 840 349 847 q 302 819 312 833 q 288 785 292 806 q 285 736 285 764 l 285 694 l 440 694 l 440 593 z "},"g":{"ha":791,"x_min":73,"x_max":760,"o":"m 652 467 q 628 358 652 403 q 565 284 604 313 q 474 242 525 255 q 369 229 422 229 q 243 245 301 229 q 214 204 224 224 q 204 174 204 184 q 205 156 204 163 q 213 142 207 148 q 231 134 219 137 q 264 131 243 131 l 363 131 q 446 129 404 131 q 529 121 489 127 q 606 103 570 115 q 669 73 642 92 q 711 27 696 54 q 727 -37 727 0 q 705 -152 727 -104 q 639 -233 683 -199 q 531 -285 595 -267 q 380 -307 466 -303 q 258 -294 314 -307 q 160 -257 201 -281 q 96 -207 119 -234 q 73 -141 73 -180 q 97 -58 73 -109 q 174 33 121 -8 l 172 44 q 147 50 161 45 q 119 65 132 54 q 97 92 106 75 q 88 134 88 109 q 178 296 88 206 q 104 369 128 326 q 80 459 80 412 q 98 548 80 504 q 152 628 116 593 q 242 685 189 663 q 368 707 296 707 q 477 689 431 707 q 562 641 524 671 q 597 663 578 652 q 640 684 617 674 q 688 699 663 693 q 740 706 713 705 l 760 567 q 741 569 749 568 q 725 570 732 570 q 713 571 717 571 q 669 567 693 571 q 625 557 646 564 q 648 511 643 534 q 652 467 652 489 m 383 -203 q 471 -192 431 -203 q 542 -163 512 -182 q 588 -116 572 -145 q 605 -36 605 -87 q 549 11 605 -5 q 387 27 494 27 q 322 27 355 27 q 257 28 290 27 q 212 -55 227 -6 q 197 -134 197 -103 q 246 -185 197 -168 q 383 -203 295 -203 m 197 464 q 208 407 197 433 q 239 362 218 380 q 292 333 260 343 q 368 322 323 322 q 453 335 419 322 q 506 369 487 348 q 533 417 526 390 q 541 472 541 444 q 533 524 541 498 q 505 570 524 549 q 452 602 485 590 q 372 614 420 614 q 307 607 338 614 q 252 581 276 599 q 212 534 227 563 q 197 464 197 505 z "},"h":{"ha":779,"x_min":108,"x_max":680,"o":"m 108 0 l 108 958 l 236 958 l 236 738 l 237 607 q 333 680 280 654 q 442 706 386 706 q 622 636 564 706 q 680 440 680 567 l 680 0 l 553 0 l 553 433 q 548 495 553 464 q 527 550 543 526 q 484 591 511 575 q 412 607 456 607 q 358 600 382 607 q 317 582 334 593 q 287 557 299 571 q 266 531 274 544 q 242 459 248 502 q 236 371 236 416 l 236 0 l 108 0 z "},"i":{"ha":374,"x_min":37,"x_max":279,"o":"m 267 0 l 140 0 l 140 593 l 37 593 l 37 694 l 267 694 l 267 0 m 279 934 l 279 817 l 128 817 l 128 934 l 279 934 z "},"j":{"ha":378,"x_min":-2,"x_max":285,"o":"m 85 -302 q 39 -299 60 -302 q -2 -288 18 -295 l -2 -184 q 32 -193 16 -190 q 62 -197 47 -197 q 97 -192 82 -197 q 122 -175 112 -187 q 137 -142 132 -163 q 142 -90 142 -121 l 142 593 l 40 593 l 40 694 l 271 694 l 271 -87 q 261 -171 271 -132 q 230 -239 252 -210 q 173 -285 208 -268 q 85 -302 137 -302 m 285 934 l 285 817 l 135 817 l 135 934 l 285 934 z "},"k":{"ha":706,"x_min":107,"x_max":677,"o":"m 677 0 l 534 0 l 347 312 l 236 312 l 236 0 l 107 0 l 107 958 l 236 958 l 236 417 l 300 417 q 328 417 313 417 q 358 418 343 418 q 410 468 386 441 q 454 529 433 496 q 491 601 474 562 q 524 694 509 640 l 657 694 q 624 593 645 641 q 577 501 604 545 q 518 419 550 457 q 452 355 486 381 l 677 0 z "},"l":{"ha":382,"x_min":19,"x_max":355,"o":"m 335 -13 q 212 5 255 -13 q 149 61 169 23 q 125 157 129 98 q 122 297 122 216 l 122 857 l 19 857 l 19 958 l 250 958 l 250 262 q 252 174 250 208 q 263 123 254 141 q 295 98 273 104 q 355 92 316 92 l 335 -13 l 335 -13 z "},"m":{"ha":1232,"x_min":35,"x_max":1132,"o":"m 138 0 l 138 593 l 35 593 l 35 694 l 256 694 l 263 592 q 313 645 288 623 q 365 681 339 667 q 416 701 391 694 q 464 707 441 707 q 540 698 507 707 q 598 673 573 689 q 643 635 624 657 q 676 587 662 613 q 712 631 691 610 q 761 670 734 653 q 822 696 788 686 q 895 707 855 707 q 983 694 941 707 q 1059 653 1026 682 q 1112 576 1092 625 q 1132 456 1132 528 l 1132 0 l 1006 0 l 1006 450 q 971 569 1006 532 q 867 607 937 607 q 819 602 841 607 q 781 587 798 596 q 751 567 764 578 q 732 545 739 556 q 715 511 722 530 q 705 471 709 492 q 701 430 702 450 q 699 391 699 409 l 699 0 l 572 0 l 572 456 q 538 567 572 526 q 437 607 505 607 q 387 601 409 607 q 347 584 364 594 q 317 563 330 574 q 298 540 305 551 q 272 469 278 510 q 266 382 266 428 l 266 0 l 138 0 z "},"n":{"ha":811,"x_min":35,"x_max":711,"o":"m 585 0 l 585 448 q 547 566 585 524 q 441 607 509 607 q 312 550 359 607 q 266 385 266 494 l 266 0 l 138 0 l 138 593 l 35 593 l 35 694 l 256 694 l 263 593 q 304 642 283 621 q 351 677 326 663 q 406 699 376 692 q 472 707 435 707 q 551 695 509 707 q 628 656 593 684 q 687 581 664 628 q 711 460 711 533 l 711 0 l 585 0 z "},"o":{"ha":766,"x_min":66,"x_max":699,"o":"m 699 347 q 679 202 699 268 q 617 88 658 136 q 517 14 577 40 q 380 -13 458 -13 q 248 13 306 -13 q 149 85 189 39 q 88 197 109 132 q 66 341 66 262 q 85 482 66 416 q 142 598 103 548 q 242 677 181 648 q 388 706 303 706 q 530 676 471 706 q 627 595 589 646 q 682 480 665 545 q 699 347 699 416 m 193 342 q 203 239 193 286 q 237 158 214 192 q 296 105 260 124 q 382 86 332 86 q 458 101 423 86 q 518 147 493 115 q 558 227 544 178 q 572 345 572 276 q 525 539 572 471 q 387 607 477 607 q 314 592 349 607 q 252 546 279 578 q 209 463 224 513 q 193 342 193 413 z "},"p":{"ha":786,"x_min":104,"x_max":718,"o":"m 108 -282 l 108 488 q 107 553 108 518 q 106 618 106 588 q 104 694 104 654 l 224 694 l 233 591 q 281 646 255 624 q 336 682 308 669 q 392 701 364 696 q 446 707 420 707 q 550 684 500 707 q 637 617 600 662 q 696 505 674 572 q 718 346 718 437 q 695 187 718 254 q 633 76 673 120 q 542 9 594 31 q 433 -13 490 -13 q 319 12 369 -13 q 231 75 269 37 l 235 -52 l 235 -282 l 108 -282 m 414 85 q 506 110 471 85 q 561 172 541 134 q 588 257 581 210 q 595 350 595 304 q 586 451 595 404 q 557 532 577 498 q 503 587 536 567 q 421 607 470 607 q 350 593 384 607 q 291 557 316 578 q 250 509 265 535 q 235 458 235 483 l 235 246 q 245 191 235 219 q 279 139 256 162 q 335 100 301 115 q 414 85 368 85 z "},"q":{"ha":784,"x_min":68,"x_max":680,"o":"m 338 706 q 408 696 376 706 q 467 669 440 686 q 514 632 493 652 q 553 590 536 611 l 562 695 l 680 695 q 679 677 680 692 q 679 648 679 663 q 678 616 678 633 q 677 585 677 600 q 676 559 677 570 q 676 545 676 548 l 676 -282 l 550 -282 l 550 -51 q 550 -16 550 -35 q 551 20 551 2 q 553 53 552 38 q 554 78 553 68 q 453 8 507 30 q 351 -13 399 -13 q 240 9 292 -13 q 150 76 189 31 q 90 188 112 121 q 68 347 68 256 q 90 507 68 439 q 148 618 111 574 q 234 684 184 663 q 338 706 283 706 m 553 323 q 551 381 553 350 q 543 445 549 413 q 525 505 537 476 q 492 557 513 534 q 440 593 471 580 q 366 607 410 607 q 302 595 329 607 q 256 564 275 584 q 225 518 237 544 q 206 464 213 492 q 197 406 199 435 q 195 350 195 376 q 198 289 195 320 q 208 229 201 258 q 229 174 216 200 q 261 128 241 148 q 309 97 281 109 q 374 86 337 86 q 460 104 426 86 q 515 154 494 122 q 544 229 536 185 q 553 323 553 272 z "},"r":{"ha":508,"x_min":104,"x_max":490,"o":"m 108 516 q 107 547 108 525 q 107 596 107 570 q 105 651 106 623 q 104 695 104 680 l 222 695 l 229 574 q 277 635 251 610 q 331 676 304 661 q 383 699 357 692 q 431 706 409 706 q 460 705 444 706 q 490 702 476 704 l 482 577 q 448 583 464 581 q 414 585 431 585 q 333 569 367 585 q 278 524 299 553 q 246 456 256 496 q 236 370 236 417 l 236 0 l 108 0 l 108 516 z "},"s":{"ha":625,"x_min":56,"x_max":562,"o":"m 96 150 q 140 122 116 134 q 191 102 165 111 q 245 90 218 94 q 298 86 273 86 q 351 92 326 86 q 395 111 376 98 q 425 143 414 124 q 436 189 436 163 q 429 221 436 207 q 406 250 422 236 q 360 276 389 263 q 288 306 332 290 q 200 341 240 323 q 133 381 161 359 q 89 436 104 404 q 73 513 73 467 q 94 598 73 562 q 148 659 114 635 q 227 694 182 682 q 320 706 272 706 q 443 688 381 706 q 555 633 504 669 l 513 546 q 467 571 491 560 q 417 590 442 583 q 368 603 392 598 q 323 607 344 607 q 273 602 296 607 q 232 586 250 596 q 205 559 215 575 q 195 523 195 543 q 204 488 195 504 q 232 459 214 473 q 276 434 250 446 q 335 410 302 422 q 440 366 397 388 q 511 320 484 345 q 550 266 538 296 q 562 198 562 237 q 539 104 562 144 q 477 38 515 64 q 391 0 439 12 q 290 -13 342 -13 q 168 4 225 -13 q 56 58 111 22 l 96 150 z "},"t":{"ha":475,"x_min":33,"x_max":432,"o":"m 352 86 q 394 89 371 86 q 432 95 416 92 l 432 1 q 381 -8 411 -4 q 320 -13 351 -13 q 245 -4 279 -13 q 188 25 212 4 q 152 82 165 46 q 140 171 140 117 l 140 594 l 33 594 l 33 695 l 143 695 l 165 861 l 268 883 l 268 695 l 429 695 l 429 594 l 268 594 l 268 186 q 271 148 268 166 q 283 116 274 130 q 309 94 292 102 q 352 86 325 86 z "},"u":{"ha":778,"x_min":100,"x_max":680,"o":"m 574 0 q 568 28 571 12 q 564 64 566 43 q 559 114 562 85 q 479 20 534 52 q 355 -13 425 -13 q 163 55 227 -13 q 100 249 100 122 l 100 694 l 227 694 l 227 248 q 233 185 227 215 q 255 134 239 156 q 296 99 271 112 q 361 86 322 86 q 450 104 415 86 q 506 152 485 121 q 534 225 526 183 q 543 316 543 267 l 543 694 l 669 694 l 669 255 q 670 144 669 191 q 674 64 672 97 q 680 0 677 27 l 574 0 z "},"v":{"ha":697,"x_min":12,"x_max":688,"o":"m 275 0 l 12 694 l 149 694 l 267 366 l 350 123 l 433 366 l 549 694 l 688 694 l 415 0 l 275 0 z "},"w":{"ha":1029,"x_min":26,"x_max":1002,"o":"m 587 694 l 680 349 l 741 110 l 751 110 l 805 387 l 873 694 l 1002 694 l 827 0 l 669 0 l 574 347 l 515 586 l 455 347 l 361 0 l 203 0 l 26 694 l 158 694 l 222 387 l 281 110 l 290 110 l 350 349 l 442 694 l 587 694 z "},"x":{"ha":713,"x_min":24,"x_max":685,"o":"m 277 358 l 37 694 l 193 694 l 361 437 l 532 694 l 680 694 l 435 354 l 685 0 l 530 0 l 350 269 l 170 0 l 24 0 l 277 358 z "},"y":{"ha":695,"x_min":9,"x_max":686,"o":"m 389 -60 q 360 -127 376 -92 q 321 -192 344 -162 q 270 -240 299 -221 q 203 -260 241 -260 q 174 -257 189 -260 q 137 -248 158 -254 l 137 -154 q 163 -161 153 -159 q 182 -163 174 -163 q 216 -151 202 -163 q 241 -119 231 -139 q 261 -73 252 -98 q 277 -20 269 -47 l 283 3 l 9 694 l 149 694 l 269 366 l 350 133 l 432 366 l 549 694 l 686 694 l 389 -60 z "},"z":{"ha":600,"x_min":58,"x_max":536,"o":"m 536 0 l 58 0 l 58 113 l 389 593 l 77 593 l 77 694 l 532 694 l 532 590 l 194 101 l 536 101 l 536 0 z "},"{":{"ha":486,"x_min":15,"x_max":443,"o":"m 438 -185 q 310 -160 359 -182 q 234 -104 261 -139 q 196 -23 206 -69 q 186 75 186 22 l 186 193 q 174 266 186 237 q 139 312 161 294 q 85 338 117 330 q 15 350 54 347 l 15 440 q 104 458 71 445 q 156 492 138 471 q 180 539 174 512 q 186 598 186 566 l 186 721 q 197 821 186 776 q 237 899 208 866 q 314 952 265 932 q 437 975 362 971 l 443 886 q 372 868 399 880 q 330 836 345 855 q 309 789 315 816 q 304 727 304 762 l 304 608 q 298 543 304 575 q 277 483 293 511 q 234 432 262 454 q 161 395 206 409 q 234 357 206 380 q 278 306 262 334 q 298 246 293 278 q 304 182 304 214 l 304 106 q 306 30 304 64 q 321 -32 308 -5 q 362 -74 334 -58 q 443 -94 391 -90 l 438 -185 z "},"|":{"ha":337,"x_min":113,"x_max":224,"o":"m 113 1002 l 224 1002 l 224 -323 l 113 -323 l 113 1002 z "},"}":{"ha":486,"x_min":43,"x_max":471,"o":"m 43 -94 q 124 -74 96 -90 q 165 -32 153 -58 q 180 30 178 -5 q 182 106 182 64 l 182 182 q 188 246 182 214 q 209 306 193 278 q 252 357 224 334 q 325 395 280 380 q 252 432 280 409 q 209 483 224 454 q 188 543 193 511 q 182 608 182 575 l 182 727 q 177 789 182 762 q 156 836 172 816 q 114 868 141 855 q 43 886 87 880 l 49 975 q 173 952 124 971 q 250 899 221 932 q 289 821 278 866 q 300 721 300 776 l 300 598 q 306 539 300 566 q 330 492 312 512 q 382 458 349 471 q 471 440 416 445 l 471 350 q 401 338 433 347 q 347 312 370 330 q 313 266 325 294 q 300 193 300 237 l 300 75 q 290 -23 300 22 q 253 -104 280 -69 q 176 -160 225 -139 q 48 -185 126 -182 l 43 -94 z "},"~":{"ha":819,"x_min":81,"x_max":739,"o":"m 81 349 q 150 455 106 416 q 257 494 193 494 q 298 487 273 494 q 353 471 323 481 q 414 451 382 462 q 476 431 446 440 q 533 415 507 421 q 578 408 559 408 q 640 430 608 408 q 695 498 672 451 l 739 445 q 706 371 726 399 q 663 327 686 343 q 614 306 640 311 q 568 300 589 300 q 511 307 541 300 q 449 322 480 313 q 386 343 417 332 q 328 363 355 354 q 279 379 300 372 q 243 385 257 385 q 182 362 215 385 q 125 294 149 339 l 81 349 z "}," ":{"ha":356,"x_min":0,"x_max":0,"o":""},"¡":{"ha":360,"x_min":110,"x_max":251,"o":"m 251 0 l 110 0 l 142 715 l 218 715 l 251 0 m 110 945 l 251 945 l 251 802 l 110 802 l 110 945 z "},"¢":{"ha":646,"x_min":64,"x_max":581,"o":"m 450 886 l 530 886 l 477 705 l 502 690 q 545 661 526 677 q 581 630 565 644 l 520 548 q 505 559 512 554 q 490 570 498 565 q 471 582 482 576 q 444 594 460 587 l 300 107 q 336 98 319 101 q 373 96 354 96 q 422 101 399 96 q 466 117 446 107 q 505 138 487 126 q 538 163 523 151 l 572 76 q 494 11 542 37 q 373 -14 446 -14 q 323 -11 349 -14 q 269 0 297 -7 l 224 -155 l 144 -155 l 199 33 q 145 81 170 52 q 102 149 120 110 q 74 237 84 187 q 64 348 64 286 q 89 521 64 450 q 158 636 115 592 q 258 699 201 680 q 378 718 315 718 q 386 718 381 718 q 400 717 391 718 l 450 886 m 194 352 q 204 250 194 298 q 235 158 214 201 l 368 609 q 285 582 318 604 q 231 527 252 561 q 202 449 211 494 q 194 352 194 404 z "},"£":{"ha":789,"x_min":72,"x_max":721,"o":"m 76 96 l 152 106 q 161 120 157 109 q 168 149 165 132 q 174 185 172 165 q 179 223 177 205 q 181 257 180 241 q 182 282 182 273 l 182 439 l 72 439 l 72 538 l 184 538 q 183 562 183 550 q 182 582 182 572 q 182 599 182 593 q 185 679 182 637 q 196 761 187 721 q 223 837 205 801 q 273 899 241 872 q 350 942 304 926 q 463 958 397 958 q 539 950 502 958 q 610 925 576 942 q 671 880 643 907 q 721 811 699 852 l 623 766 q 564 832 604 808 q 467 857 524 857 q 389 840 418 857 q 342 796 359 824 q 320 730 326 768 q 314 649 314 692 l 314 538 l 525 538 l 525 439 l 314 439 l 314 282 q 311 245 314 267 q 304 198 309 222 q 292 149 299 173 q 278 106 286 124 l 721 106 l 721 0 l 76 0 l 76 96 z "},"¤":{"ha":994,"x_min":102,"x_max":893,"o":"m 102 587 q 123 718 102 655 q 184 832 145 780 l 119 899 l 189 968 l 255 902 q 369 963 308 941 q 498 985 430 985 q 625 963 564 985 q 739 903 686 941 l 804 968 l 875 899 l 809 832 q 871 719 850 781 q 893 587 893 656 q 872 459 893 519 q 811 347 850 398 q 843 314 826 331 q 875 283 860 298 l 804 212 l 742 275 q 627 213 689 235 q 498 191 565 191 q 368 213 430 191 q 252 275 305 235 l 189 212 l 119 283 l 183 347 q 123 459 144 398 q 102 587 102 519 m 498 285 q 622 311 569 285 q 710 379 675 337 q 764 476 746 422 q 781 587 781 530 q 764 699 781 644 q 710 795 746 753 q 622 864 675 838 q 498 890 568 890 q 374 864 427 890 q 285 795 321 838 q 232 699 250 753 q 214 587 214 644 q 232 476 214 530 q 285 379 250 422 q 374 311 321 337 q 498 285 427 285 z "},"¥":{"ha":815,"x_min":44,"x_max":771,"o":"m 342 0 l 342 194 l 121 194 l 121 288 l 342 288 l 342 363 l 121 363 l 121 458 l 298 458 q 171 706 236 579 q 44 955 106 833 l 198 955 l 410 490 l 626 955 l 771 955 l 517 458 l 692 458 l 692 363 l 472 363 l 472 288 l 692 288 l 692 194 l 472 194 l 472 0 l 342 0 z "},"¦":{"ha":351,"x_min":120,"x_max":231,"o":"m 120 1002 l 231 1002 l 231 511 l 120 511 l 120 1002 m 120 203 l 231 203 l 231 -323 l 120 -323 l 120 203 z "},"§":{"ha":648,"x_min":92,"x_max":562,"o":"m 287 -18 q 188 -9 233 -18 q 99 18 142 0 l 99 136 q 138 119 116 128 q 185 103 161 111 q 237 92 210 96 q 292 87 264 87 q 364 97 336 87 q 406 121 391 106 q 426 151 421 135 q 431 177 431 166 q 416 217 431 199 q 377 249 401 235 q 323 276 353 263 q 261 301 292 288 q 209 323 239 310 q 154 358 180 337 q 110 411 128 380 q 92 486 92 442 q 103 546 92 519 q 131 593 114 572 q 169 629 148 614 q 209 655 189 644 q 132 716 161 679 q 104 806 104 753 q 121 883 104 849 q 171 940 139 917 q 248 976 203 964 q 347 988 292 988 q 533 954 431 988 l 514 847 q 431 876 471 865 q 351 888 391 888 q 308 885 330 888 q 270 873 287 882 q 241 850 252 865 q 231 811 231 835 q 238 779 231 793 q 262 754 245 766 q 307 730 279 742 q 372 703 334 718 q 434 677 402 692 q 494 642 467 663 q 538 589 521 621 q 555 513 555 558 q 527 408 555 449 q 448 340 499 366 q 490 317 469 330 q 526 284 510 303 q 552 241 542 266 q 562 184 562 216 q 543 101 562 138 q 489 37 524 64 q 403 -4 454 11 q 287 -18 352 -18 m 207 506 q 218 464 207 483 q 249 430 229 445 q 295 402 269 414 q 352 380 321 390 q 380 396 364 387 q 410 419 396 406 q 433 451 423 433 q 442 492 442 469 q 433 533 442 515 q 406 564 424 550 q 362 591 389 578 q 300 615 335 603 q 268 599 284 609 q 237 576 251 589 q 215 545 224 562 q 207 506 207 527 z "},"¨":{"ha":553,"x_min":71,"x_max":478,"o":"m 222 934 l 222 817 l 71 817 l 71 934 l 222 934 m 478 934 l 478 817 l 328 817 l 328 934 l 478 934 z "},"©":{"ha":1117,"x_min":63,"x_max":1054,"o":"m 323 488 q 336 589 323 536 q 379 686 349 643 q 456 756 408 729 q 572 783 503 783 q 623 778 596 783 q 673 760 649 772 q 719 725 698 747 q 751 669 739 703 l 686 629 q 664 667 676 653 q 636 687 651 680 q 605 697 622 694 q 570 699 589 699 q 498 680 527 699 q 452 630 469 661 q 427 561 435 600 q 420 487 420 522 q 427 413 420 452 q 452 343 435 374 q 498 294 469 313 q 570 275 527 275 q 605 277 589 275 q 636 287 622 279 q 664 307 651 294 q 686 345 676 321 l 751 304 q 719 249 739 271 q 673 214 698 227 q 623 196 649 201 q 572 191 596 191 q 456 218 503 191 q 379 288 408 245 q 336 385 349 331 q 323 488 323 438 m 63 484 q 81 615 63 551 q 130 733 98 678 q 207 834 162 789 q 308 912 252 880 q 426 962 363 944 q 559 980 490 980 q 690 962 627 980 q 808 912 753 945 q 908 834 863 880 q 986 734 954 789 q 1036 615 1019 679 q 1054 484 1054 552 q 1036 352 1054 415 q 986 233 1019 288 q 908 132 954 178 q 808 55 863 87 q 690 5 753 22 q 559 -13 627 -13 q 426 5 490 -13 q 308 55 363 22 q 207 133 252 87 q 130 233 162 178 q 81 352 98 288 q 63 484 63 415 m 134 484 q 167 319 134 396 q 258 185 200 243 q 393 94 315 127 q 559 61 471 61 q 724 94 647 61 q 859 185 802 127 q 949 319 916 243 q 982 484 982 396 q 967 596 982 542 q 925 697 952 650 q 859 783 897 744 q 773 849 820 821 q 671 891 726 876 q 559 907 617 907 q 446 891 500 907 q 344 849 391 876 q 258 783 297 821 q 192 697 219 744 q 149 596 164 650 q 134 484 134 542 z "},"ª":{"ha":522,"x_min":73,"x_max":427,"o":"m 215 530 q 160 539 186 530 q 115 564 134 547 q 84 604 96 580 q 73 660 73 628 q 90 727 73 699 q 134 772 106 754 q 199 798 161 789 q 278 806 236 806 l 338 806 l 338 831 q 332 864 338 850 q 316 886 326 878 q 293 899 306 895 q 265 903 280 903 q 203 893 235 903 q 146 867 172 883 l 114 920 q 148 942 129 932 q 189 959 168 952 q 234 968 211 965 q 279 972 257 972 q 334 963 308 972 q 380 935 360 954 q 411 887 399 916 q 423 817 423 858 l 423 655 q 424 610 423 631 q 425 574 424 590 q 427 543 425 557 l 352 543 q 349 558 351 550 q 346 573 348 565 q 342 591 344 582 q 319 568 332 579 q 290 549 306 557 q 256 535 275 541 q 215 530 237 530 m 234 604 q 289 617 268 604 q 320 649 309 629 q 335 693 332 669 q 338 740 338 717 q 327 740 334 740 q 314 741 321 741 q 301 741 307 741 q 292 741 295 741 q 241 736 265 741 q 200 724 218 732 q 172 700 182 715 q 162 665 162 686 q 166 642 162 653 q 178 623 170 631 q 200 609 186 614 q 234 604 214 604 z "},"«":{"ha":671,"x_min":64,"x_max":595,"o":"m 323 336 l 323 348 l 495 610 l 594 585 l 454 341 l 595 96 l 495 73 l 323 336 m 64 336 l 64 349 l 235 610 l 334 585 l 193 341 l 335 96 l 235 73 l 64 336 z "},"¬":{"ha":852,"x_min":94,"x_max":737,"o":"m 737 523 l 737 156 l 629 156 l 629 415 l 94 415 l 94 523 l 737 523 z "},"®":{"ha":1115,"x_min":62,"x_max":1051,"o":"m 375 206 l 375 768 l 551 768 q 620 762 585 768 q 684 739 655 755 q 731 691 713 722 q 749 612 749 661 q 745 577 749 595 q 729 539 740 558 q 701 503 718 520 q 658 473 683 486 q 698 450 682 466 q 725 412 714 434 q 742 365 735 391 q 754 312 749 339 q 766 257 760 284 q 781 206 772 230 l 684 206 q 659 317 667 272 q 638 389 650 361 q 608 428 627 416 q 550 440 589 440 l 470 440 l 470 206 l 375 206 m 470 684 l 470 523 l 550 523 q 588 526 570 523 q 622 538 607 529 q 645 563 636 547 q 654 604 654 578 q 645 646 654 630 q 622 670 636 662 q 589 682 608 679 q 549 684 570 684 l 470 684 m 133 484 q 166 318 133 395 q 258 184 200 241 q 392 93 315 126 q 557 60 469 60 q 722 94 645 60 q 856 184 799 127 q 946 319 913 241 q 979 484 979 396 q 947 647 979 570 q 857 782 914 724 q 723 873 800 840 q 557 907 646 907 q 392 873 469 907 q 258 783 315 840 q 166 648 200 725 q 133 484 133 572 m 62 484 q 80 617 62 553 q 131 736 98 681 q 209 836 163 791 q 309 913 254 881 q 427 962 364 945 q 557 980 490 980 q 688 962 625 980 q 806 912 751 945 q 906 835 861 880 q 984 735 951 790 q 1034 616 1016 680 q 1051 484 1051 553 q 1034 352 1051 415 q 983 233 1016 288 q 906 132 951 178 q 806 55 861 87 q 688 5 751 22 q 557 -13 625 -13 q 426 5 489 -13 q 309 55 363 22 q 208 132 254 87 q 131 233 163 178 q 80 352 98 288 q 62 484 62 415 z "},"¯":{"ha":370,"x_min":-2,"x_max":366,"o":"m -2 924 l 366 924 l 366 845 l -2 845 l -2 924 z "},"°":{"ha":548,"x_min":66,"x_max":481,"o":"m 66 741 q 83 822 66 784 q 127 888 99 860 q 194 933 156 917 q 274 949 231 949 q 354 933 317 949 q 420 888 392 917 q 465 822 449 860 q 481 741 481 784 q 465 660 481 698 q 421 594 449 622 q 355 549 393 566 q 274 532 317 532 q 194 549 231 532 q 127 593 156 565 q 83 660 99 622 q 66 741 66 698 m 159 741 q 168 696 159 717 q 193 661 177 676 q 229 636 208 645 q 274 627 250 627 q 319 636 298 627 q 356 661 340 646 q 380 697 372 676 q 389 741 389 718 q 380 785 389 764 q 355 821 371 806 q 319 846 340 837 q 274 855 298 855 q 229 846 250 855 q 193 822 208 838 q 168 786 177 806 q 159 741 159 765 z "},"±":{"ha":823,"x_min":90,"x_max":733,"o":"m 355 382 l 90 382 l 90 492 l 355 492 l 355 726 l 467 726 l 467 492 l 733 492 l 733 382 l 467 382 l 467 151 l 355 151 l 355 382 m 90 -9 l 90 100 l 733 100 l 733 -9 l 90 -9 z "},"²":{"ha":627,"x_min":76,"x_max":545,"o":"m 83 786 q 125 861 103 830 q 175 912 148 892 q 234 940 201 931 q 308 949 267 949 q 394 936 353 949 q 465 898 435 924 q 513 832 495 871 q 530 739 530 792 q 520 674 530 707 q 487 602 510 641 q 425 518 463 564 q 330 415 387 472 l 203 286 l 545 286 l 545 193 l 76 193 l 76 288 l 262 480 q 327 550 296 516 q 378 617 357 585 q 413 681 400 650 q 425 741 425 712 q 419 782 425 762 q 400 819 414 802 q 365 846 387 836 q 310 857 342 857 q 254 846 277 857 q 217 821 232 836 q 192 787 201 806 q 174 752 182 769 l 83 786 z "},"³":{"ha":633,"x_min":58,"x_max":547,"o":"m 58 327 l 138 370 q 213 305 168 327 q 304 283 258 283 q 356 292 331 283 q 400 316 381 300 q 431 357 420 332 q 442 414 442 381 q 427 474 442 450 q 388 513 412 498 q 332 533 363 528 q 269 539 301 539 l 216 539 l 216 628 q 228 627 221 627 q 240 627 234 627 q 309 632 275 627 q 368 652 342 637 q 410 690 394 666 q 426 753 426 715 q 416 801 426 781 q 390 834 406 821 q 351 853 373 847 q 306 860 330 860 q 261 854 283 860 q 219 837 239 848 q 182 809 199 826 q 156 770 166 793 l 75 801 q 117 866 91 838 q 175 912 142 894 q 243 940 207 930 q 315 949 279 949 q 396 937 357 949 q 465 900 435 924 q 513 841 495 876 q 532 758 532 805 q 523 708 532 733 q 498 661 515 684 q 459 620 482 639 q 407 585 436 600 q 477 549 450 571 q 520 502 505 527 q 542 453 536 477 q 547 412 547 429 q 527 323 547 363 q 473 256 507 284 q 395 213 439 229 q 303 198 351 198 q 237 205 271 198 q 173 229 204 213 q 112 269 141 244 q 58 327 83 293 z "},"´":{"ha":553,"x_min":169,"x_max":431,"o":"m 169 790 l 283 1000 l 431 1000 l 258 790 l 169 790 z "},"µ":{"ha":771,"x_min":119,"x_max":680,"o":"m 562 691 l 680 691 l 680 0 l 578 0 l 570 88 q 535 50 554 68 q 492 17 515 31 q 441 -6 469 3 q 382 -14 414 -14 q 298 5 334 -14 q 235 50 262 24 q 236 -33 235 6 q 236 -66 236 -49 q 237 -99 237 -83 q 237 -126 237 -114 q 237 -146 237 -139 l 237 -294 l 119 -294 l 119 691 l 237 691 l 237 304 q 243 224 237 263 q 264 156 248 186 q 309 107 280 125 q 387 90 338 90 q 460 104 427 90 q 515 149 492 118 q 550 229 538 180 q 562 348 562 278 l 562 691 z "},"¶":{"ha":829,"x_min":45,"x_max":729,"o":"m 593 -197 l 593 880 l 455 880 l 455 -197 l 357 -197 l 357 351 q 338 350 349 351 q 319 350 326 350 q 201 373 252 350 q 115 437 150 396 q 63 535 81 478 q 45 659 45 591 q 63 788 45 728 q 120 891 81 848 q 220 958 159 934 q 367 983 281 983 l 729 983 l 729 879 l 692 879 l 692 -197 l 593 -197 z "},"·":{"ha":346,"x_min":97,"x_max":249,"o":"m 97 473 l 249 473 l 249 304 l 97 304 l 97 473 z "},"¸":{"ha":326,"x_min":23,"x_max":294,"o":"m 294 -168 q 288 -208 294 -186 q 262 -250 281 -231 q 208 -284 243 -270 q 119 -298 174 -298 q 65 -292 88 -298 q 23 -279 42 -287 l 41 -212 q 73 -221 54 -218 q 113 -224 92 -224 q 169 -211 147 -224 q 191 -174 191 -198 q 184 -151 191 -160 q 166 -137 177 -142 q 143 -130 156 -132 q 119 -128 130 -128 q 109 -128 113 -128 q 101 -129 105 -128 l 65 -111 l 141 12 l 216 12 l 168 -66 q 264 -99 234 -75 q 294 -168 294 -123 z "},"¹":{"ha":429,"x_min":30,"x_max":307,"o":"m 205 576 q 205 593 205 581 q 205 624 205 606 q 206 662 205 641 q 206 703 206 682 q 208 811 207 752 q 135 757 173 782 q 55 708 96 732 l 30 802 q 58 819 41 808 q 93 842 75 829 q 131 869 111 855 q 167 896 150 883 q 197 918 184 908 q 218 934 211 928 l 307 934 l 307 193 l 205 193 l 205 576 z "},"º":{"ha":511,"x_min":50,"x_max":462,"o":"m 462 753 q 448 661 462 703 q 407 591 433 620 q 341 546 380 562 q 255 530 303 530 q 166 547 204 530 q 102 593 127 564 q 63 663 76 623 q 50 751 50 704 q 62 839 50 798 q 101 909 75 880 q 166 956 127 939 q 257 972 205 972 q 352 954 313 972 q 415 904 391 935 q 451 833 439 873 q 462 753 462 794 m 141 753 q 147 696 141 723 q 166 648 153 669 q 201 615 179 627 q 255 603 222 603 q 300 612 279 603 q 336 639 321 621 q 360 686 351 658 q 369 754 369 715 q 363 811 369 785 q 346 858 358 838 q 311 890 333 878 q 257 901 290 901 q 204 890 226 901 q 168 859 182 879 q 148 812 154 840 q 141 753 141 785 z "},"»":{"ha":672,"x_min":77,"x_max":609,"o":"m 218 340 l 77 585 l 176 610 l 349 347 l 349 334 l 176 73 l 79 96 l 218 340 m 478 340 l 337 585 l 436 610 l 609 347 l 608 334 l 435 73 l 338 96 l 478 340 z "},"¼":{"ha":1333,"x_min":40,"x_max":1280,"o":"m 812 982 l 483 -12 l 374 -12 l 705 982 l 812 982 m 215 576 q 215 593 215 581 q 215 624 215 606 q 216 662 216 641 q 216 703 216 682 q 218 811 217 752 q 145 757 183 782 q 65 708 106 732 l 40 802 q 68 819 52 808 q 103 842 85 829 q 141 869 121 855 q 177 896 160 883 q 208 918 194 908 q 228 934 221 928 l 317 934 l 317 193 l 215 193 l 215 576 m 1072 -2 l 1072 159 l 738 159 l 738 269 l 1065 747 l 1174 747 l 1174 254 l 1280 254 l 1280 159 l 1174 159 l 1174 -2 l 1072 -2 m 834 254 l 1072 254 l 1072 435 l 1074 630 l 991 491 l 834 254 z "},"½":{"ha":1340,"x_min":40,"x_max":1268,"o":"m 815 982 l 486 -12 l 377 -12 l 709 982 l 815 982 m 215 576 q 215 593 215 581 q 215 624 215 606 q 216 662 216 641 q 216 703 216 682 q 218 811 217 752 q 145 757 183 782 q 65 708 106 732 l 40 802 q 68 819 52 808 q 103 842 85 829 q 141 869 121 855 q 177 896 160 883 q 208 918 194 908 q 228 934 221 928 l 317 934 l 317 193 l 215 193 l 215 576 m 806 591 q 848 666 826 635 q 898 716 871 697 q 957 745 924 736 q 1031 753 990 753 q 1117 741 1076 753 q 1188 702 1158 728 q 1236 636 1218 676 q 1253 543 1253 597 q 1243 478 1253 511 q 1210 407 1233 446 q 1148 322 1186 368 q 1053 220 1109 277 l 926 91 l 1268 91 l 1268 -2 l 799 -2 l 799 93 l 985 285 q 1049 355 1019 321 q 1101 422 1080 389 q 1136 486 1123 454 q 1148 546 1148 517 q 1142 587 1148 566 q 1123 624 1137 607 q 1088 651 1110 640 q 1033 661 1065 661 q 977 651 1000 661 q 940 626 955 641 q 915 592 924 610 q 897 557 905 574 l 806 591 z "},"¾":{"ha":1499,"x_min":58,"x_max":1453,"o":"m 988 982 l 659 -12 l 550 -12 l 882 982 l 988 982 m 1245 -1 l 1245 160 l 911 160 l 911 270 l 1238 748 l 1347 748 l 1347 254 l 1453 254 l 1453 160 l 1347 160 l 1347 -1 l 1245 -1 m 1007 254 l 1245 254 l 1245 435 l 1247 631 l 1164 492 l 1007 254 m 58 327 l 138 370 q 213 305 168 327 q 304 283 258 283 q 356 292 331 283 q 400 316 381 300 q 431 357 420 332 q 442 414 442 381 q 427 474 442 450 q 388 513 412 498 q 332 533 363 528 q 269 539 301 539 l 216 539 l 216 628 q 228 627 221 627 q 240 627 234 627 q 309 632 275 627 q 368 652 342 637 q 410 690 394 666 q 426 753 426 715 q 416 801 426 781 q 390 834 406 821 q 351 853 373 847 q 306 860 330 860 q 261 854 283 860 q 219 837 239 848 q 182 809 199 826 q 156 770 166 793 l 75 801 q 117 866 91 838 q 175 912 142 894 q 243 940 207 930 q 315 949 279 949 q 396 937 357 949 q 465 900 435 924 q 513 841 495 876 q 532 758 532 805 q 523 708 532 733 q 498 661 515 684 q 459 620 482 639 q 407 585 436 600 q 477 549 450 571 q 520 502 505 527 q 542 453 536 477 q 547 412 547 429 q 527 323 547 363 q 473 256 507 284 q 395 213 439 229 q 303 198 351 198 q 237 205 271 198 q 173 229 204 213 q 112 269 141 244 q 58 327 83 293 z "},"¿":{"ha":598,"x_min":53,"x_max":554,"o":"m 406 729 l 406 675 q 403 614 406 642 q 391 562 400 587 q 365 513 382 537 q 319 460 347 488 q 265 404 290 431 q 223 351 240 377 q 196 299 206 326 q 186 245 186 273 q 202 179 186 205 q 244 139 219 153 q 296 118 268 124 q 346 113 324 113 q 424 123 376 113 q 534 160 471 132 l 554 44 q 460 12 513 27 q 342 -3 406 -3 q 222 14 275 -3 q 131 61 168 30 q 74 137 94 92 q 54 239 54 182 q 63 314 54 282 q 91 376 73 347 q 138 435 110 406 q 205 501 167 465 q 252 547 234 528 q 281 584 271 566 q 295 625 291 603 q 298 682 298 648 l 298 729 l 406 729 m 425 815 l 280 815 l 280 958 l 425 958 l 425 815 z "},"À":{"ha":878,"x_min":13,"x_max":863,"o":"m 13 43 l 375 958 l 506 958 l 863 40 l 863 0 l 735 0 l 632 269 l 237 269 l 132 0 l 13 0 l 13 43 m 371 629 l 281 385 l 589 385 l 501 629 l 437 812 l 371 629 m 488 1070 l 302 1280 l 458 1280 l 575 1070 l 488 1070 z "},"Á":{"ha":878,"x_min":13,"x_max":863,"o":"m 13 43 l 375 958 l 506 958 l 863 40 l 863 0 l 735 0 l 632 269 l 237 269 l 132 0 l 13 0 l 13 43 m 371 629 l 281 385 l 589 385 l 501 629 l 437 812 l 371 629 m 308 1071 l 422 1280 l 570 1280 l 397 1071 l 308 1071 z "},"Â":{"ha":878,"x_min":13,"x_max":863,"o":"m 13 43 l 375 958 l 506 958 l 863 40 l 863 0 l 735 0 l 632 269 l 237 269 l 132 0 l 13 0 l 13 43 m 371 629 l 281 385 l 589 385 l 501 629 l 437 812 l 371 629 m 548 1086 l 437 1239 l 325 1086 l 202 1086 l 378 1329 l 502 1329 l 675 1086 l 548 1086 z "},"Ã":{"ha":878,"x_min":13,"x_max":863,"o":"m 13 43 l 375 958 l 506 958 l 863 40 l 863 0 l 735 0 l 632 269 l 237 269 l 132 0 l 13 0 l 13 43 m 371 629 l 281 385 l 589 385 l 501 629 l 437 812 l 371 629 m 521 1090 q 479 1098 503 1090 q 432 1116 456 1106 q 387 1133 408 1125 q 353 1141 366 1141 q 319 1128 331 1141 q 296 1083 307 1115 l 231 1083 q 241 1146 231 1118 q 268 1196 251 1175 q 309 1228 286 1217 q 357 1240 332 1240 q 400 1232 378 1240 q 443 1215 422 1224 q 485 1198 465 1206 q 524 1190 506 1190 q 561 1205 548 1190 q 579 1249 574 1221 l 647 1249 q 634 1177 645 1207 q 606 1128 623 1147 q 567 1099 589 1108 q 521 1090 545 1090 z "},"Ä":{"ha":878,"x_min":13,"x_max":863,"o":"m 13 43 l 375 958 l 506 958 l 863 40 l 863 0 l 735 0 l 632 269 l 237 269 l 132 0 l 13 0 l 13 43 m 371 629 l 281 385 l 589 385 l 501 629 l 437 812 l 371 629 m 386 1215 l 386 1098 l 235 1098 l 235 1215 l 386 1215 m 642 1215 l 642 1098 l 492 1098 l 492 1215 l 642 1215 z "},"Å":{"ha":878,"x_min":13,"x_max":863,"o":"m 13 43 l 375 958 l 506 958 l 863 40 l 863 0 l 735 0 l 632 269 l 237 269 l 132 0 l 13 0 l 13 43 m 371 629 l 281 385 l 589 385 l 501 629 l 437 812 l 371 629 m 437 1301 q 368 1275 397 1301 q 339 1205 339 1248 q 366 1139 339 1166 q 437 1112 393 1112 q 507 1139 480 1112 q 534 1205 534 1166 q 505 1275 534 1248 q 436 1301 476 1301 l 437 1301 m 437 1364 q 501 1353 471 1364 q 553 1320 532 1341 q 586 1269 574 1299 q 597 1205 597 1240 q 586 1142 597 1171 q 553 1093 574 1114 q 501 1060 532 1072 q 437 1048 471 1048 q 372 1060 403 1048 q 321 1093 342 1072 q 288 1142 300 1114 q 276 1205 276 1171 q 288 1269 276 1240 q 321 1320 300 1299 q 372 1353 342 1341 q 437 1364 403 1364 z "},"Æ":{"ha":1230,"x_min":-22,"x_max":1149,"o":"m 651 0 l 627 278 l 264 278 l 119 0 l -22 0 l 477 958 l 1141 958 l 1141 839 l 707 839 l 733 556 l 1120 556 l 1120 437 l 745 437 l 774 120 l 1149 120 l 1149 0 l 651 0 m 320 394 l 615 394 l 575 844 l 547 844 l 320 394 z "},"Ç":{"ha":841,"x_min":74,"x_max":791,"o":"m 791 63 q 636 2 709 22 q 498 -18 563 -18 q 367 2 426 -18 q 260 55 307 21 q 178 135 214 89 q 120 236 143 182 q 85 350 97 290 q 74 471 74 410 q 86 596 74 534 q 121 715 98 659 q 181 819 145 771 q 263 903 216 867 q 368 958 310 938 q 495 978 426 978 q 586 967 542 978 q 667 932 629 956 q 735 870 705 909 q 784 775 766 831 l 665 747 q 638 802 655 780 q 599 836 621 823 q 551 854 577 849 q 497 860 525 860 q 376 828 429 860 q 288 743 323 796 q 233 619 252 689 q 215 473 215 549 q 233 336 215 403 q 287 217 250 269 q 379 133 323 165 q 511 101 435 101 q 620 118 562 101 q 746 168 678 134 l 791 63 m 610 -168 q 604 -208 610 -186 q 578 -250 597 -231 q 524 -284 559 -270 q 435 -298 490 -298 q 381 -292 404 -298 q 339 -279 358 -287 l 357 -212 q 389 -221 370 -218 q 429 -224 408 -224 q 485 -211 463 -224 q 507 -174 507 -198 q 500 -151 507 -160 q 483 -137 493 -142 q 459 -130 472 -132 q 435 -128 446 -128 q 425 -128 429 -128 q 417 -129 421 -128 l 381 -111 l 457 12 l 532 12 l 484 -66 q 580 -99 550 -75 q 610 -168 610 -123 z "},"È":{"ha":772,"x_min":129,"x_max":690,"o":"m 690 0 l 129 0 l 129 958 l 684 958 l 684 839 l 262 839 l 262 555 l 660 555 l 660 436 l 262 436 l 262 121 l 690 121 l 690 0 m 448 1070 l 262 1280 l 418 1280 l 535 1070 l 448 1070 z "},"É":{"ha":772,"x_min":129,"x_max":690,"o":"m 690 0 l 129 0 l 129 958 l 684 958 l 684 839 l 262 839 l 262 555 l 660 555 l 660 436 l 262 436 l 262 121 l 690 121 l 690 0 m 267 1071 l 381 1280 l 530 1280 l 356 1071 l 267 1071 z "},"Ê":{"ha":772,"x_min":129,"x_max":690,"o":"m 690 0 l 129 0 l 129 958 l 684 958 l 684 839 l 262 839 l 262 555 l 660 555 l 660 436 l 262 436 l 262 121 l 690 121 l 690 0 m 508 1086 l 397 1239 l 285 1086 l 162 1086 l 338 1329 l 462 1329 l 635 1086 l 508 1086 z "},"Ë":{"ha":772,"x_min":129,"x_max":690,"o":"m 690 0 l 129 0 l 129 958 l 684 958 l 684 839 l 262 839 l 262 555 l 660 555 l 660 436 l 262 436 l 262 121 l 690 121 l 690 0 m 346 1215 l 346 1098 l 195 1098 l 195 1215 l 346 1215 m 602 1215 l 602 1098 l 452 1098 l 452 1215 l 602 1215 z "},"Ì":{"ha":391,"x_min":63,"x_max":336,"o":"m 130 0 l 130 958 l 262 958 l 262 0 l 130 0 m 248 1070 l 63 1280 l 219 1280 l 336 1070 l 248 1070 z "},"Í":{"ha":391,"x_min":68,"x_max":330,"o":"m 130 0 l 130 958 l 262 958 l 262 0 l 130 0 m 68 1071 l 182 1280 l 330 1280 l 157 1071 l 68 1071 z "},"Î":{"ha":392,"x_min":-37,"x_max":436,"o":"m 130 0 l 130 958 l 262 958 l 262 0 l 130 0 m 309 1086 l 198 1239 l 85 1086 l -37 1086 l 139 1329 l 262 1329 l 436 1086 l 309 1086 z "},"Ï":{"ha":392,"x_min":-4,"x_max":403,"o":"m 130 0 l 130 958 l 262 958 l 262 0 l 130 0 m 146 1215 l 146 1098 l -4 1098 l -4 1215 l 146 1215 m 403 1215 l 403 1098 l 252 1098 l 252 1215 l 403 1215 z "},"Ð":{"ha":951,"x_min":50,"x_max":878,"o":"m 50 434 l 50 548 l 130 548 l 130 958 l 457 958 q 586 939 528 958 q 692 889 645 921 q 773 813 739 857 q 831 717 808 769 q 866 608 854 665 q 878 492 878 551 q 849 292 878 382 q 766 137 821 201 q 630 36 711 72 q 441 0 549 0 l 130 0 l 130 434 l 50 434 m 264 841 l 264 548 l 383 548 l 383 434 l 264 434 l 264 116 l 432 116 q 565 144 508 116 q 660 221 622 172 q 716 337 697 270 q 735 484 735 405 q 718 615 735 551 q 665 730 700 680 q 578 810 630 780 q 459 841 527 841 l 264 841 z "},"Ñ":{"ha":1008,"x_min":130,"x_max":879,"o":"m 130 0 l 130 958 l 296 958 l 743 207 l 758 210 q 757 260 758 232 q 756 318 757 288 q 755 378 755 349 q 754 434 755 408 q 754 477 754 459 q 754 503 754 496 l 754 958 l 879 958 l 879 0 l 718 0 l 262 762 l 248 758 q 249 707 249 736 q 250 648 250 679 q 251 586 251 617 q 252 530 252 555 q 252 485 252 504 q 252 458 252 465 l 252 0 l 130 0 m 589 1090 q 547 1098 570 1090 q 500 1116 524 1106 q 455 1133 476 1125 q 420 1141 434 1141 q 387 1128 399 1141 q 363 1083 374 1115 l 298 1083 q 309 1146 298 1118 q 336 1196 319 1175 q 376 1228 353 1217 q 425 1240 399 1240 q 468 1232 446 1240 q 511 1215 490 1224 q 553 1198 532 1206 q 592 1190 574 1190 q 629 1205 616 1190 q 647 1249 642 1221 l 715 1249 q 702 1177 713 1207 q 674 1128 691 1147 q 634 1099 656 1108 q 589 1090 612 1090 z "},"Ò":{"ha":1006,"x_min":76,"x_max":930,"o":"m 503 -18 q 362 1 425 -18 q 253 53 300 20 q 172 132 205 86 q 117 233 138 178 q 86 350 96 288 q 76 477 76 412 q 86 606 76 543 q 119 725 97 669 q 175 827 141 781 q 257 907 210 873 q 366 959 304 941 q 503 978 427 978 q 641 959 579 978 q 749 907 702 941 q 831 827 797 873 q 887 725 865 781 q 919 606 909 669 q 930 477 930 543 q 920 350 930 412 q 889 233 910 288 q 834 132 868 178 q 753 53 801 86 q 644 1 706 20 q 503 -18 582 -18 m 503 101 q 643 132 587 101 q 730 214 698 162 q 776 335 763 267 q 789 480 789 404 q 775 629 789 559 q 728 749 762 698 q 640 830 695 801 q 503 860 585 860 q 366 830 421 860 q 278 749 311 801 q 231 629 245 698 q 216 480 216 559 q 230 335 216 404 q 275 214 243 267 q 363 132 308 162 q 503 101 418 101 m 554 1070 l 369 1280 l 525 1280 l 642 1070 l 554 1070 z "},"Ó":{"ha":1006,"x_min":76,"x_max":930,"o":"m 503 -18 q 362 1 425 -18 q 253 53 300 20 q 172 132 205 86 q 117 233 138 178 q 86 350 96 288 q 76 477 76 412 q 86 606 76 543 q 119 725 97 669 q 175 827 141 781 q 257 907 210 873 q 366 959 304 941 q 503 978 427 978 q 641 959 579 978 q 749 907 702 941 q 831 827 797 873 q 887 725 865 781 q 919 606 909 669 q 930 477 930 543 q 920 350 930 412 q 889 233 910 288 q 834 132 868 178 q 753 53 801 86 q 644 1 706 20 q 503 -18 582 -18 m 503 101 q 643 132 587 101 q 730 214 698 162 q 776 335 763 267 q 789 480 789 404 q 775 629 789 559 q 728 749 762 698 q 640 830 695 801 q 503 860 585 860 q 366 830 421 860 q 278 749 311 801 q 231 629 245 698 q 216 480 216 559 q 230 335 216 404 q 275 214 243 267 q 363 132 308 162 q 503 101 418 101 m 374 1071 l 488 1280 l 636 1280 l 463 1071 l 374 1071 z "},"Ô":{"ha":1006,"x_min":76,"x_max":930,"o":"m 503 -18 q 362 1 425 -18 q 253 53 300 20 q 172 132 205 86 q 117 233 138 178 q 86 350 96 288 q 76 477 76 412 q 86 606 76 543 q 119 725 97 669 q 175 827 141 781 q 257 907 210 873 q 366 959 304 941 q 503 978 427 978 q 641 959 579 978 q 749 907 702 941 q 831 827 797 873 q 887 725 865 781 q 919 606 909 669 q 930 477 930 543 q 920 350 930 412 q 889 233 910 288 q 834 132 868 178 q 753 53 801 86 q 644 1 706 20 q 503 -18 582 -18 m 503 101 q 643 132 587 101 q 730 214 698 162 q 776 335 763 267 q 789 480 789 404 q 775 629 789 559 q 728 749 762 698 q 640 830 695 801 q 503 860 585 860 q 366 830 421 860 q 278 749 311 801 q 231 629 245 698 q 216 480 216 559 q 230 335 216 404 q 275 214 243 267 q 363 132 308 162 q 503 101 418 101 m 614 1086 l 504 1239 l 391 1086 l 269 1086 l 445 1329 l 568 1329 l 742 1086 l 614 1086 z "},"Õ":{"ha":1006,"x_min":76,"x_max":930,"o":"m 503 -18 q 362 1 425 -18 q 253 53 300 20 q 172 132 205 86 q 117 233 138 178 q 86 350 96 288 q 76 477 76 412 q 86 606 76 543 q 119 725 97 669 q 175 827 141 781 q 257 907 210 873 q 366 959 304 941 q 503 978 427 978 q 641 959 579 978 q 749 907 702 941 q 831 827 797 873 q 887 725 865 781 q 919 606 909 669 q 930 477 930 543 q 920 350 930 412 q 889 233 910 288 q 834 132 868 178 q 753 53 801 86 q 644 1 706 20 q 503 -18 582 -18 m 503 101 q 643 132 587 101 q 730 214 698 162 q 776 335 763 267 q 789 480 789 404 q 775 629 789 559 q 728 749 762 698 q 640 830 695 801 q 503 860 585 860 q 366 830 421 860 q 278 749 311 801 q 231 629 245 698 q 216 480 216 559 q 230 335 216 404 q 275 214 243 267 q 363 132 308 162 q 503 101 418 101 m 587 1090 q 546 1098 569 1090 q 498 1116 522 1106 q 454 1133 475 1125 q 419 1141 433 1141 q 385 1128 397 1141 q 362 1083 373 1115 l 297 1083 q 307 1146 297 1118 q 335 1196 317 1175 q 375 1228 352 1217 q 423 1240 398 1240 q 466 1232 444 1240 q 510 1215 488 1224 q 552 1198 531 1206 q 591 1190 572 1190 q 627 1205 614 1190 q 646 1249 640 1221 l 713 1249 q 701 1177 711 1207 q 672 1128 690 1147 q 633 1099 655 1108 q 587 1090 611 1090 z "},"Ö":{"ha":1006,"x_min":76,"x_max":930,"o":"m 503 -18 q 362 1 425 -18 q 253 53 300 20 q 172 132 205 86 q 117 233 138 178 q 86 350 96 288 q 76 477 76 412 q 86 606 76 543 q 119 725 97 669 q 175 827 141 781 q 257 907 210 873 q 366 959 304 941 q 503 978 427 978 q 641 959 579 978 q 749 907 702 941 q 831 827 797 873 q 887 725 865 781 q 919 606 909 669 q 930 477 930 543 q 920 350 930 412 q 889 233 910 288 q 834 132 868 178 q 753 53 801 86 q 644 1 706 20 q 503 -18 582 -18 m 503 101 q 643 132 587 101 q 730 214 698 162 q 776 335 763 267 q 789 480 789 404 q 775 629 789 559 q 728 749 762 698 q 640 830 695 801 q 503 860 585 860 q 366 830 421 860 q 278 749 311 801 q 231 629 245 698 q 216 480 216 559 q 230 335 216 404 q 275 214 243 267 q 363 132 308 162 q 503 101 418 101 m 452 1215 l 452 1098 l 302 1098 l 302 1215 l 452 1215 m 709 1215 l 709 1098 l 558 1098 l 558 1215 l 709 1215 z "},"×":{"ha":704,"x_min":85,"x_max":618,"o":"m 350 319 l 162 132 l 86 207 l 275 394 l 85 583 l 165 662 l 353 474 l 542 662 l 618 587 l 429 398 l 617 211 l 537 132 l 350 319 z "},"Ø":{"ha":1007,"x_min":77,"x_max":930,"o":"m 930 484 q 906 291 930 382 q 830 131 882 199 q 697 22 779 62 q 500 -18 616 -18 q 379 -5 433 -18 q 281 32 326 8 l 220 -70 l 132 -47 l 211 83 q 150 160 176 117 q 109 253 125 203 q 84 359 92 302 q 77 477 77 416 q 82 573 77 523 q 102 671 88 623 q 137 764 115 719 q 190 846 158 809 l 189 846 q 260 907 222 882 q 339 948 298 932 q 422 971 380 964 q 507 978 465 978 q 622 965 568 978 q 720 928 675 952 l 781 1029 l 870 1005 l 791 876 q 895 714 859 812 q 930 484 930 616 m 503 101 q 618 125 564 101 q 711 193 673 149 q 749 260 734 222 q 772 336 764 297 q 784 414 781 376 q 787 485 787 453 q 772 640 787 570 q 722 760 756 709 l 348 142 q 420 111 381 121 q 503 101 460 101 m 217 480 q 232 331 217 402 q 284 205 248 260 l 656 822 q 590 850 627 840 q 507 860 553 860 q 370 830 425 860 q 280 749 314 801 q 232 629 246 698 q 217 480 217 559 z "},"Ù":{"ha":978,"x_min":119,"x_max":859,"o":"m 859 958 l 859 355 q 832 202 859 271 q 757 85 806 134 q 640 9 708 36 q 490 -18 572 -18 q 339 6 408 -18 q 222 78 271 31 q 146 196 173 125 q 119 360 119 267 l 119 958 l 252 958 l 252 352 q 273 228 252 277 q 329 151 294 179 q 406 113 363 123 q 492 102 449 102 q 581 114 544 102 q 645 145 618 125 q 688 191 671 165 q 713 245 704 217 q 725 302 722 273 q 728 355 728 330 l 728 958 l 859 958 m 539 1057 l 354 1267 l 510 1267 l 627 1057 l 539 1057 z "},"Ú":{"ha":978,"x_min":119,"x_max":859,"o":"m 859 958 l 859 355 q 832 202 859 271 q 757 85 806 134 q 640 9 708 36 q 490 -18 572 -18 q 339 6 408 -18 q 222 78 271 31 q 146 196 173 125 q 119 360 119 267 l 119 958 l 252 958 l 252 352 q 273 228 252 277 q 329 151 294 179 q 406 113 363 123 q 492 102 449 102 q 581 114 544 102 q 645 145 618 125 q 688 191 671 165 q 713 245 704 217 q 725 302 722 273 q 728 355 728 330 l 728 958 l 859 958 m 361 1058 l 475 1267 l 623 1267 l 450 1058 l 361 1058 z "},"Û":{"ha":978,"x_min":119,"x_max":859,"o":"m 859 958 l 859 355 q 832 202 859 271 q 757 85 806 134 q 640 9 708 36 q 490 -18 572 -18 q 339 6 408 -18 q 222 78 271 31 q 146 196 173 125 q 119 360 119 267 l 119 958 l 252 958 l 252 352 q 273 228 252 277 q 329 151 294 179 q 406 113 363 123 q 492 102 449 102 q 581 114 544 102 q 645 145 618 125 q 688 191 671 165 q 713 245 704 217 q 725 302 722 273 q 728 355 728 330 l 728 958 l 859 958 m 600 1073 l 489 1226 l 376 1073 l 254 1073 l 430 1316 l 553 1316 l 727 1073 l 600 1073 z "},"Ü":{"ha":978,"x_min":119,"x_max":859,"o":"m 859 958 l 859 355 q 832 202 859 271 q 757 85 806 134 q 640 9 708 36 q 490 -18 572 -18 q 339 6 408 -18 q 222 78 271 31 q 146 196 173 125 q 119 360 119 267 l 119 958 l 252 958 l 252 352 q 273 228 252 277 q 329 151 294 179 q 406 113 363 123 q 492 102 449 102 q 581 114 544 102 q 645 145 618 125 q 688 191 671 165 q 713 245 704 217 q 725 302 722 273 q 728 355 728 330 l 728 958 l 859 958 m 439 1202 l 439 1085 l 288 1085 l 288 1202 l 439 1202 m 695 1202 l 695 1085 l 545 1085 l 545 1202 l 695 1202 z "},"Ý":{"ha":796,"x_min":-6,"x_max":802,"o":"m 403 490 l 653 958 l 802 958 l 466 371 l 466 0 l 330 0 l 330 371 l -6 958 l 151 958 l 403 490 m 264 1058 l 378 1267 l 526 1267 l 353 1058 l 264 1058 z "},"Þ":{"ha":787,"x_min":128,"x_max":745,"o":"m 128 988 l 261 988 l 261 861 l 411 861 q 544 846 483 861 q 650 800 606 832 q 720 716 695 768 q 745 589 745 665 q 721 458 745 512 q 651 369 697 404 q 538 317 605 334 q 386 301 471 301 l 261 301 l 261 0 l 128 0 l 128 988 m 261 416 l 326 416 q 394 417 359 416 q 459 422 428 418 q 517 438 490 427 q 564 467 544 448 q 595 516 584 486 q 606 589 606 545 q 589 669 606 638 q 545 716 572 699 q 481 740 517 734 q 406 746 445 746 l 261 746 l 261 416 z "},"ß":{"ha":814,"x_min":108,"x_max":771,"o":"m 676 793 q 669 746 676 767 q 651 706 663 724 q 624 672 640 688 q 593 644 609 657 q 551 608 568 623 q 523 582 534 593 q 508 562 513 571 q 504 541 504 552 q 519 503 504 520 q 573 462 535 486 q 642 415 607 439 q 706 362 677 391 q 753 297 734 333 q 771 216 771 261 q 751 116 771 159 q 696 45 731 73 q 615 3 662 17 q 515 -12 569 -12 q 448 -5 481 -12 q 387 16 414 1 q 338 57 359 31 q 309 123 318 83 l 380 178 q 436 114 400 137 q 518 91 473 91 q 577 101 553 91 q 615 126 601 111 q 636 161 630 142 q 643 201 643 181 q 632 252 643 231 q 601 293 621 274 q 555 328 582 311 q 497 365 528 345 q 442 404 465 385 q 405 441 419 422 q 383 481 390 460 q 376 528 376 503 q 385 579 376 557 q 407 619 393 601 q 439 652 421 637 q 478 684 458 668 q 505 705 492 694 q 528 727 518 715 q 543 754 538 739 q 549 787 549 768 q 510 866 549 837 q 397 896 472 896 q 328 887 358 896 q 277 860 298 879 q 246 810 257 841 q 235 733 235 779 l 235 0 l 108 0 l 108 734 q 121 835 108 788 q 168 918 135 882 q 258 974 201 954 q 400 995 315 995 q 503 984 453 995 q 591 949 553 973 q 653 887 629 926 q 676 793 676 849 z "},"à":{"ha":705,"x_min":52,"x_max":617,"o":"m 104 623 q 163 656 132 642 q 228 683 195 671 q 296 700 262 694 q 361 706 330 706 q 454 693 410 706 q 531 654 498 681 q 583 585 564 627 q 602 484 602 543 l 602 204 q 604 121 602 158 q 609 56 606 83 q 617 0 612 24 l 503 0 q 499 43 500 12 q 496 113 497 74 q 447 51 473 75 q 392 12 420 26 q 334 -7 363 -2 q 275 -13 304 -13 q 182 1 224 -13 q 112 41 141 15 q 68 105 83 68 q 52 189 52 142 q 57 237 52 212 q 74 286 62 262 q 104 333 85 311 q 151 373 123 355 q 217 402 181 392 q 291 418 253 413 q 368 424 330 423 q 443 425 407 425 l 479 425 l 479 475 q 470 538 479 513 q 444 579 460 564 q 404 601 427 594 q 357 608 382 608 q 299 601 329 608 q 241 585 269 595 q 187 562 212 574 q 142 538 161 550 l 104 623 m 438 142 q 459 176 451 157 q 471 217 467 194 q 477 269 475 240 q 479 333 479 297 l 459 333 q 362 330 412 333 q 271 312 313 326 q 202 268 229 298 q 176 187 176 239 q 182 150 176 168 q 201 118 188 132 q 234 95 214 104 q 283 86 254 86 q 373 100 332 86 q 438 142 414 115 m 392 789 l 207 999 l 363 999 l 479 789 l 392 789 z "},"á":{"ha":705,"x_min":52,"x_max":617,"o":"m 104 623 q 163 656 132 642 q 228 683 195 671 q 296 700 262 694 q 361 706 330 706 q 454 693 410 706 q 531 654 498 681 q 583 585 564 627 q 602 484 602 543 l 602 204 q 604 121 602 158 q 609 56 606 83 q 617 0 612 24 l 503 0 q 499 43 500 12 q 496 113 497 74 q 447 51 473 75 q 392 12 420 26 q 334 -7 363 -2 q 275 -13 304 -13 q 182 1 224 -13 q 112 41 141 15 q 68 105 83 68 q 52 189 52 142 q 57 237 52 212 q 74 286 62 262 q 104 333 85 311 q 151 373 123 355 q 217 402 181 392 q 291 418 253 413 q 368 424 330 423 q 443 425 407 425 l 479 425 l 479 475 q 470 538 479 513 q 444 579 460 564 q 404 601 427 594 q 357 608 382 608 q 299 601 329 608 q 241 585 269 595 q 187 562 212 574 q 142 538 161 550 l 104 623 m 438 142 q 459 176 451 157 q 471 217 467 194 q 477 269 475 240 q 479 333 479 297 l 459 333 q 362 330 412 333 q 271 312 313 326 q 202 268 229 298 q 176 187 176 239 q 182 150 176 168 q 201 118 188 132 q 234 95 214 104 q 283 86 254 86 q 373 100 332 86 q 438 142 414 115 m 212 790 l 326 1000 l 475 1000 l 301 790 l 212 790 z "},"â":{"ha":705,"x_min":52,"x_max":617,"o":"m 104 623 q 163 656 132 642 q 228 683 195 671 q 296 700 262 694 q 361 706 330 706 q 454 693 410 706 q 531 654 498 681 q 583 585 564 627 q 602 484 602 543 l 602 204 q 604 121 602 158 q 609 56 606 83 q 617 0 612 24 l 503 0 q 499 43 500 12 q 496 113 497 74 q 447 51 473 75 q 392 12 420 26 q 334 -7 363 -2 q 275 -13 304 -13 q 182 1 224 -13 q 112 41 141 15 q 68 105 83 68 q 52 189 52 142 q 57 237 52 212 q 74 286 62 262 q 104 333 85 311 q 151 373 123 355 q 217 402 181 392 q 291 418 253 413 q 368 424 330 423 q 443 425 407 425 l 479 425 l 479 475 q 470 538 479 513 q 444 579 460 564 q 404 601 427 594 q 357 608 382 608 q 299 601 329 608 q 241 585 269 595 q 187 562 212 574 q 142 538 161 550 l 104 623 m 438 142 q 459 176 451 157 q 471 217 467 194 q 477 269 475 240 q 479 333 479 297 l 459 333 q 362 330 412 333 q 271 312 313 326 q 202 268 229 298 q 176 187 176 239 q 182 150 176 168 q 201 118 188 132 q 234 95 214 104 q 283 86 254 86 q 373 100 332 86 q 438 142 414 115 m 452 805 l 342 958 l 229 805 l 106 805 l 283 1048 l 406 1048 l 580 805 l 452 805 z "},"ã":{"ha":705,"x_min":52,"x_max":617,"o":"m 104 623 q 163 656 132 642 q 228 683 195 671 q 296 700 262 694 q 361 706 330 706 q 454 693 410 706 q 531 654 498 681 q 583 585 564 627 q 602 484 602 543 l 602 204 q 604 121 602 158 q 609 56 606 83 q 617 0 612 24 l 503 0 q 499 43 500 12 q 496 113 497 74 q 447 51 473 75 q 392 12 420 26 q 334 -7 363 -2 q 275 -13 304 -13 q 182 1 224 -13 q 112 41 141 15 q 68 105 83 68 q 52 189 52 142 q 57 237 52 212 q 74 286 62 262 q 104 333 85 311 q 151 373 123 355 q 217 402 181 392 q 291 418 253 413 q 368 424 330 423 q 443 425 407 425 l 479 425 l 479 475 q 470 538 479 513 q 444 579 460 564 q 404 601 427 594 q 357 608 382 608 q 299 601 329 608 q 241 585 269 595 q 187 562 212 574 q 142 538 161 550 l 104 623 m 438 142 q 459 176 451 157 q 471 217 467 194 q 477 269 475 240 q 479 333 479 297 l 459 333 q 362 330 412 333 q 271 312 313 326 q 202 268 229 298 q 176 187 176 239 q 182 150 176 168 q 201 118 188 132 q 234 95 214 104 q 283 86 254 86 q 373 100 332 86 q 438 142 414 115 m 425 809 q 384 817 407 809 q 336 835 360 825 q 292 852 313 844 q 257 861 271 861 q 223 847 235 861 q 200 802 211 834 l 135 802 q 145 866 135 837 q 173 915 155 895 q 213 947 190 936 q 261 959 236 959 q 304 951 282 959 q 348 934 326 943 q 390 917 369 925 q 429 909 410 909 q 465 925 452 909 q 484 968 478 940 l 551 968 q 538 897 549 926 q 510 847 528 867 q 471 818 493 827 q 425 809 449 809 z "},"ä":{"ha":705,"x_min":52,"x_max":617,"o":"m 104 623 q 163 656 132 642 q 228 683 195 671 q 296 700 262 694 q 361 706 330 706 q 454 693 410 706 q 531 654 498 681 q 583 585 564 627 q 602 484 602 543 l 602 204 q 604 121 602 158 q 609 56 606 83 q 617 0 612 24 l 503 0 q 499 43 500 12 q 496 113 497 74 q 447 51 473 75 q 392 12 420 26 q 334 -7 363 -2 q 275 -13 304 -13 q 182 1 224 -13 q 112 41 141 15 q 68 105 83 68 q 52 189 52 142 q 57 237 52 212 q 74 286 62 262 q 104 333 85 311 q 151 373 123 355 q 217 402 181 392 q 291 418 253 413 q 368 424 330 423 q 443 425 407 425 l 479 425 l 479 475 q 470 538 479 513 q 444 579 460 564 q 404 601 427 594 q 357 608 382 608 q 299 601 329 608 q 241 585 269 595 q 187 562 212 574 q 142 538 161 550 l 104 623 m 438 142 q 459 176 451 157 q 471 217 467 194 q 477 269 475 240 q 479 333 479 297 l 459 333 q 362 330 412 333 q 271 312 313 326 q 202 268 229 298 q 176 187 176 239 q 182 150 176 168 q 201 118 188 132 q 234 95 214 104 q 283 86 254 86 q 373 100 332 86 q 438 142 414 115 m 290 934 l 290 817 l 140 817 l 140 934 l 290 934 m 547 934 l 547 817 l 396 817 l 396 934 l 547 934 z "},"å":{"ha":705,"x_min":52,"x_max":617,"o":"m 104 623 q 163 656 132 642 q 228 683 195 671 q 296 700 262 694 q 361 706 330 706 q 454 693 410 706 q 531 654 498 681 q 583 585 564 627 q 602 484 602 543 l 602 204 q 604 121 602 158 q 609 56 606 83 q 617 0 612 24 l 503 0 q 499 43 500 12 q 496 113 497 74 q 447 51 473 75 q 392 12 420 26 q 334 -7 363 -2 q 275 -13 304 -13 q 182 1 224 -13 q 112 41 141 15 q 68 105 83 68 q 52 189 52 142 q 57 237 52 212 q 74 286 62 262 q 104 333 85 311 q 151 373 123 355 q 217 402 181 392 q 291 418 253 413 q 368 424 330 423 q 443 425 407 425 l 479 425 l 479 475 q 470 538 479 513 q 444 579 460 564 q 404 601 427 594 q 357 608 382 608 q 299 601 329 608 q 241 585 269 595 q 187 562 212 574 q 142 538 161 550 l 104 623 m 438 142 q 459 176 451 157 q 471 217 467 194 q 477 269 475 240 q 479 333 479 297 l 459 333 q 362 330 412 333 q 271 312 313 326 q 202 268 229 298 q 176 187 176 239 q 182 150 176 168 q 201 118 188 132 q 234 95 214 104 q 283 86 254 86 q 373 100 332 86 q 438 142 414 115 m 342 1021 q 273 994 302 1021 q 243 924 243 967 q 271 858 243 885 q 342 831 298 831 q 412 858 385 831 q 439 924 439 885 q 410 994 439 967 q 340 1021 380 1021 l 342 1021 m 341 1084 q 406 1072 375 1084 q 457 1039 436 1061 q 490 988 478 1018 q 502 924 502 959 q 490 861 502 890 q 457 812 478 833 q 406 779 436 791 q 341 768 375 768 q 277 779 307 768 q 225 812 246 791 q 192 861 204 833 q 180 924 180 890 q 192 988 180 959 q 225 1039 204 1018 q 277 1072 246 1061 q 341 1084 307 1084 z "},"æ":{"ha":1124,"x_min":52,"x_max":1061,"o":"m 1037 79 q 991 44 1015 61 q 939 14 968 27 q 876 -7 911 1 q 800 -15 842 -15 q 732 -7 768 -15 q 661 19 696 1 q 596 69 626 38 q 545 146 566 100 q 494 69 525 100 q 426 19 463 38 q 351 -9 390 -1 q 275 -18 311 -18 q 182 -3 223 -18 q 112 38 140 11 q 67 103 83 64 q 52 189 52 141 q 66 270 52 235 q 107 332 81 305 q 169 377 134 359 q 243 407 203 395 q 326 424 283 418 q 409 429 368 429 q 445 428 427 429 q 479 425 462 427 l 479 467 q 469 541 479 512 q 441 586 459 570 q 398 609 423 603 q 343 615 373 615 q 294 610 317 615 q 250 595 271 604 q 208 574 229 586 q 168 548 188 562 q 134 585 151 567 q 101 621 117 604 q 157 663 130 644 q 214 693 185 681 q 275 712 243 706 q 344 719 307 719 q 474 692 420 719 q 565 606 528 666 q 612 655 586 634 q 666 690 638 676 q 724 711 694 704 q 781 718 753 718 q 907 692 854 718 q 995 622 960 666 q 1045 518 1029 577 q 1061 393 1061 459 l 1061 326 l 609 326 q 621 235 610 277 q 655 162 632 193 q 714 113 678 131 q 802 94 751 94 q 910 112 862 94 q 1004 167 959 130 l 1037 79 m 779 613 q 669 569 713 613 q 614 439 624 525 l 614 428 l 928 428 q 919 498 926 465 q 895 557 912 531 q 849 598 878 583 q 779 613 821 613 m 437 147 q 457 180 450 163 q 469 220 465 198 q 476 269 474 241 q 478 333 478 297 l 458 333 q 404 332 434 333 q 343 328 374 332 q 284 315 313 323 q 232 292 255 307 q 196 254 210 277 q 182 198 182 231 q 189 157 182 176 q 211 122 196 137 q 248 98 225 107 q 304 89 271 89 q 381 103 347 89 q 437 147 416 118 z "},"ç":{"ha":652,"x_min":67,"x_max":608,"o":"m 585 59 q 474 5 533 22 q 360 -13 414 -13 q 251 8 304 -13 q 157 74 198 29 q 92 188 117 119 q 67 354 67 257 q 94 510 67 444 q 165 620 121 576 q 263 685 208 663 q 372 706 317 706 q 449 696 411 706 q 518 663 486 686 q 574 605 550 641 q 608 517 597 569 l 500 500 q 480 551 493 530 q 450 584 467 572 q 414 602 433 597 q 374 607 395 607 q 310 593 342 607 q 251 548 277 578 q 209 471 225 517 q 193 359 193 424 q 203 244 193 294 q 235 158 213 193 q 291 105 257 123 q 372 86 325 86 q 426 91 400 86 q 473 105 451 96 q 513 124 494 113 q 547 146 531 135 l 585 59 m 482 -168 q 475 -208 482 -186 q 450 -250 469 -231 q 396 -284 431 -270 q 307 -298 361 -298 q 253 -292 276 -298 q 211 -279 230 -287 l 229 -212 q 261 -221 242 -218 q 300 -224 280 -224 q 357 -211 335 -224 q 379 -174 379 -198 q 372 -151 379 -160 q 354 -137 365 -142 q 331 -130 344 -132 q 307 -128 318 -128 q 297 -128 301 -128 q 289 -129 293 -128 l 253 -111 l 329 12 l 404 12 l 356 -66 q 452 -99 422 -75 q 482 -168 482 -123 z "},"è":{"ha":707,"x_min":67,"x_max":645,"o":"m 627 56 q 582 31 606 43 q 528 9 557 18 q 461 -7 498 -1 q 377 -13 424 -13 q 249 11 306 -13 q 151 80 191 35 q 89 193 111 126 q 67 346 67 260 q 85 483 67 418 q 139 597 102 548 q 231 676 175 647 q 365 706 288 706 q 491 680 438 706 q 578 611 544 654 q 629 508 612 567 q 645 384 645 450 l 645 328 l 193 328 q 204 237 194 281 q 235 160 214 193 q 292 106 257 126 q 380 86 328 86 q 493 102 442 86 q 589 146 543 117 l 627 56 m 362 607 q 301 597 330 607 q 252 567 273 587 q 217 514 231 546 q 198 439 203 483 q 197 430 197 436 q 197 417 197 424 l 512 417 q 503 489 511 454 q 479 550 496 524 q 433 591 462 576 q 362 607 405 607 m 401 789 l 216 999 l 372 999 l 488 789 l 401 789 z "},"é":{"ha":707,"x_min":67,"x_max":645,"o":"m 627 56 q 582 31 606 43 q 528 9 557 18 q 461 -7 498 -1 q 377 -13 424 -13 q 249 11 306 -13 q 151 80 191 35 q 89 193 111 126 q 67 346 67 260 q 85 483 67 418 q 139 597 102 548 q 231 676 175 647 q 365 706 288 706 q 491 680 438 706 q 578 611 544 654 q 629 508 612 567 q 645 384 645 450 l 645 328 l 193 328 q 204 237 194 281 q 235 160 214 193 q 292 106 257 126 q 380 86 328 86 q 493 102 442 86 q 589 146 543 117 l 627 56 m 362 607 q 301 597 330 607 q 252 567 273 587 q 217 514 231 546 q 198 439 203 483 q 197 430 197 436 q 197 417 197 424 l 512 417 q 503 489 511 454 q 479 550 496 524 q 433 591 462 576 q 362 607 405 607 m 222 790 l 336 1000 l 485 1000 l 311 790 l 222 790 z "},"ê":{"ha":707,"x_min":67,"x_max":645,"o":"m 627 56 q 582 31 606 43 q 528 9 557 18 q 461 -7 498 -1 q 377 -13 424 -13 q 249 11 306 -13 q 151 80 191 35 q 89 193 111 126 q 67 346 67 260 q 85 483 67 418 q 139 597 102 548 q 231 676 175 647 q 365 706 288 706 q 491 680 438 706 q 578 611 544 654 q 629 508 612 567 q 645 384 645 450 l 645 328 l 193 328 q 204 237 194 281 q 235 160 214 193 q 292 106 257 126 q 380 86 328 86 q 493 102 442 86 q 589 146 543 117 l 627 56 m 362 607 q 301 597 330 607 q 252 567 273 587 q 217 514 231 546 q 198 439 203 483 q 197 430 197 436 q 197 417 197 424 l 512 417 q 503 489 511 454 q 479 550 496 524 q 433 591 462 576 q 362 607 405 607 m 461 805 l 351 958 l 238 805 l 115 805 l 292 1048 l 415 1048 l 589 805 l 461 805 z "},"ë":{"ha":707,"x_min":67,"x_max":645,"o":"m 627 56 q 582 31 606 43 q 528 9 557 18 q 461 -7 498 -1 q 377 -13 424 -13 q 249 11 306 -13 q 151 80 191 35 q 89 193 111 126 q 67 346 67 260 q 85 483 67 418 q 139 597 102 548 q 231 676 175 647 q 365 706 288 706 q 491 680 438 706 q 578 611 544 654 q 629 508 612 567 q 645 384 645 450 l 645 328 l 193 328 q 204 237 194 281 q 235 160 214 193 q 292 106 257 126 q 380 86 328 86 q 493 102 442 86 q 589 146 543 117 l 627 56 m 362 607 q 301 597 330 607 q 252 567 273 587 q 217 514 231 546 q 198 439 203 483 q 197 430 197 436 q 197 417 197 424 l 512 417 q 503 489 511 454 q 479 550 496 524 q 433 591 462 576 q 362 607 405 607 m 300 934 l 300 817 l 150 817 l 150 934 l 300 934 m 557 934 l 557 817 l 406 817 l 406 934 l 557 934 z "},"ì":{"ha":337,"x_min":32,"x_max":304,"o":"m 217 789 l 32 999 l 188 999 l 304 789 l 217 789 m 105 691 l 230 691 l 230 0 l 105 0 l 105 691 z "},"í":{"ha":337,"x_min":39,"x_max":301,"o":"m 39 790 l 153 1000 l 301 1000 l 127 790 l 39 790 m 105 691 l 230 691 l 230 0 l 105 0 l 105 691 z "},"î":{"ha":338,"x_min":-68,"x_max":405,"o":"m 105 691 l 230 691 l 230 0 l 105 0 l 105 691 m 277 805 l 167 958 l 54 805 l -68 805 l 108 1048 l 231 1048 l 405 805 l 277 805 z "},"ï":{"ha":337,"x_min":-34,"x_max":373,"o":"m 117 934 l 117 817 l -34 817 l -34 934 l 117 934 m 373 934 l 373 817 l 222 817 l 222 934 l 373 934 m 105 691 l 230 691 l 230 0 l 105 0 l 105 691 z "},"ð":{"ha":747,"x_min":54,"x_max":731,"o":"m 346 730 l 473 777 q 398 839 439 819 q 307 859 356 859 q 229 849 272 859 q 138 818 185 839 l 102 901 q 213 941 159 928 q 315 955 267 955 q 458 918 391 955 q 572 815 525 882 l 709 868 l 731 795 l 608 750 q 663 436 663 623 q 650 279 663 347 q 616 161 637 212 q 564 77 594 111 q 499 23 534 43 q 425 -6 464 3 q 347 -15 387 -15 q 234 4 287 -15 q 140 62 180 24 q 77 159 100 101 q 54 295 54 217 q 75 419 54 366 q 133 510 96 473 q 221 565 170 547 q 330 584 271 584 q 541 476 454 584 q 533 609 541 553 q 508 711 525 665 q 474 699 496 707 q 427 681 451 690 q 368 658 400 670 l 346 730 m 351 490 q 277 477 310 490 q 220 438 243 463 q 185 377 197 413 q 172 296 172 341 q 184 208 172 247 q 219 140 197 168 q 275 98 242 113 q 348 83 307 83 q 423 100 389 83 q 482 146 457 117 q 520 217 507 176 q 534 304 534 258 q 522 377 534 343 q 485 436 509 410 q 427 476 461 461 q 351 490 393 490 z "},"ñ":{"ha":810,"x_min":35,"x_max":711,"o":"m 585 0 l 585 448 q 547 566 585 524 q 441 607 509 607 q 312 550 359 607 q 266 385 266 494 l 266 0 l 138 0 l 138 593 l 35 593 l 35 694 l 256 694 l 263 593 q 304 642 283 621 q 351 677 326 663 q 406 699 376 692 q 472 707 435 707 q 551 695 509 707 q 628 656 593 684 q 687 581 664 628 q 711 460 711 533 l 711 0 l 585 0 m 505 809 q 464 817 487 809 q 416 835 440 825 q 372 852 393 844 q 337 861 351 861 q 303 847 315 861 q 280 802 291 834 l 215 802 q 225 866 215 837 q 253 915 235 895 q 293 947 270 936 q 341 959 316 959 q 384 951 362 959 q 428 934 406 943 q 470 917 449 925 q 509 909 490 909 q 545 925 532 909 q 564 968 558 940 l 631 968 q 618 897 629 926 q 590 847 608 867 q 551 818 573 827 q 505 809 529 809 z "},"ò":{"ha":766,"x_min":66,"x_max":699,"o":"m 699 347 q 679 202 699 268 q 617 88 658 136 q 517 14 577 40 q 380 -13 458 -13 q 248 13 306 -13 q 149 85 189 39 q 88 197 109 132 q 66 341 66 262 q 85 482 66 416 q 142 598 103 548 q 242 677 181 648 q 388 706 303 706 q 530 676 471 706 q 627 595 589 646 q 682 480 665 545 q 699 347 699 416 m 193 342 q 203 239 193 286 q 237 158 214 192 q 296 105 260 124 q 382 86 332 86 q 458 101 423 86 q 518 147 493 115 q 558 227 544 178 q 572 345 572 276 q 525 539 572 471 q 387 607 477 607 q 314 592 349 607 q 252 546 279 578 q 209 463 224 513 q 193 342 193 413 m 435 789 l 250 999 l 406 999 l 523 789 l 435 789 z "},"ó":{"ha":766,"x_min":66,"x_max":699,"o":"m 699 347 q 679 202 699 268 q 617 88 658 136 q 517 14 577 40 q 380 -13 458 -13 q 248 13 306 -13 q 149 85 189 39 q 88 197 109 132 q 66 341 66 262 q 85 482 66 416 q 142 598 103 548 q 242 677 181 648 q 388 706 303 706 q 530 676 471 706 q 627 595 589 646 q 682 480 665 545 q 699 347 699 416 m 193 342 q 203 239 193 286 q 237 158 214 192 q 296 105 260 124 q 382 86 332 86 q 458 101 423 86 q 518 147 493 115 q 558 227 544 178 q 572 345 572 276 q 525 539 572 471 q 387 607 477 607 q 314 592 349 607 q 252 546 279 578 q 209 463 224 513 q 193 342 193 413 m 256 790 l 370 1000 l 519 1000 l 345 790 l 256 790 z "},"ô":{"ha":766,"x_min":66,"x_max":699,"o":"m 699 347 q 679 202 699 268 q 617 88 658 136 q 517 14 577 40 q 380 -13 458 -13 q 248 13 306 -13 q 149 85 189 39 q 88 197 109 132 q 66 341 66 262 q 85 482 66 416 q 142 598 103 548 q 242 677 181 648 q 388 706 303 706 q 530 676 471 706 q 627 595 589 646 q 682 480 665 545 q 699 347 699 416 m 193 342 q 203 239 193 286 q 237 158 214 192 q 296 105 260 124 q 382 86 332 86 q 458 101 423 86 q 518 147 493 115 q 558 227 544 178 q 572 345 572 276 q 525 539 572 471 q 387 607 477 607 q 314 592 349 607 q 252 546 279 578 q 209 463 224 513 q 193 342 193 413 m 496 805 l 385 958 l 273 805 l 150 805 l 326 1048 l 450 1048 l 623 805 l 496 805 z "},"õ":{"ha":766,"x_min":66,"x_max":699,"o":"m 699 347 q 679 202 699 268 q 617 88 658 136 q 517 14 577 40 q 380 -13 458 -13 q 248 13 306 -13 q 149 85 189 39 q 88 197 109 132 q 66 341 66 262 q 85 482 66 416 q 142 598 103 548 q 242 677 181 648 q 388 706 303 706 q 530 676 471 706 q 627 595 589 646 q 682 480 665 545 q 699 347 699 416 m 193 342 q 203 239 193 286 q 237 158 214 192 q 296 105 260 124 q 382 86 332 86 q 458 101 423 86 q 518 147 493 115 q 558 227 544 178 q 572 345 572 276 q 525 539 572 471 q 387 607 477 607 q 314 592 349 607 q 252 546 279 578 q 209 463 224 513 q 193 342 193 413 m 469 809 q 428 817 451 809 q 380 835 404 825 q 336 852 357 844 q 301 861 315 861 q 267 847 279 861 q 244 802 255 834 l 179 802 q 189 866 179 837 q 217 915 199 895 q 257 947 234 936 q 305 959 280 959 q 348 951 326 959 q 392 934 370 943 q 434 917 413 925 q 473 909 454 909 q 509 925 496 909 q 528 968 522 940 l 595 968 q 583 897 593 926 q 554 847 572 867 q 515 818 537 827 q 469 809 493 809 z "},"ö":{"ha":766,"x_min":66,"x_max":699,"o":"m 699 347 q 679 202 699 268 q 617 88 658 136 q 517 14 577 40 q 380 -13 458 -13 q 248 13 306 -13 q 149 85 189 39 q 88 197 109 132 q 66 341 66 262 q 85 482 66 416 q 142 598 103 548 q 242 677 181 648 q 388 706 303 706 q 530 676 471 706 q 627 595 589 646 q 682 480 665 545 q 699 347 699 416 m 193 342 q 203 239 193 286 q 237 158 214 192 q 296 105 260 124 q 382 86 332 86 q 458 101 423 86 q 518 147 493 115 q 558 227 544 178 q 572 345 572 276 q 525 539 572 471 q 387 607 477 607 q 314 592 349 607 q 252 546 279 578 q 209 463 224 513 q 193 342 193 413 m 335 934 l 335 817 l 184 817 l 184 934 l 335 934 m 591 934 l 591 817 l 441 817 l 441 934 l 591 934 z "},"÷":{"ha":818,"x_min":87,"x_max":730,"o":"m 87 458 l 730 458 l 730 348 l 87 348 l 87 458 m 332 714 l 488 714 l 488 552 l 332 552 l 332 714 m 332 248 l 488 248 l 488 86 l 332 86 l 332 248 z "},"ø":{"ha":766,"x_min":66,"x_max":699,"o":"m 699 347 q 679 202 699 268 q 617 88 658 136 q 517 14 577 40 q 380 -13 458 -13 q 303 -5 339 -13 q 237 18 268 3 l 178 -81 l 90 -58 l 165 67 q 92 184 117 114 q 66 341 66 254 q 85 482 66 416 q 142 598 103 548 q 242 677 181 648 q 388 706 303 706 q 466 698 431 706 q 532 675 501 690 l 604 794 l 692 770 l 603 623 q 646 565 628 597 q 676 498 665 534 q 693 425 688 463 q 699 347 699 387 m 193 342 q 201 248 193 291 q 229 172 210 205 l 477 584 q 387 607 437 607 q 314 592 349 607 q 252 546 279 578 q 209 463 224 513 q 193 342 193 413 m 382 86 q 458 101 423 86 q 518 147 493 115 q 558 227 544 178 q 572 345 572 276 q 538 516 572 450 l 291 107 q 382 86 330 86 z "},"ù":{"ha":778,"x_min":100,"x_max":680,"o":"m 574 0 q 568 28 571 12 q 564 64 566 43 q 559 114 562 85 q 479 20 534 52 q 355 -13 425 -13 q 163 55 227 -13 q 100 249 100 122 l 100 694 l 227 694 l 227 248 q 233 185 227 215 q 255 134 239 156 q 296 99 271 112 q 361 86 322 86 q 450 104 415 86 q 506 152 485 121 q 534 225 526 183 q 543 316 543 267 l 543 694 l 669 694 l 669 255 q 670 144 669 191 q 674 64 672 97 q 680 0 677 27 l 574 0 m 441 789 l 256 999 l 412 999 l 529 789 l 441 789 z "},"ú":{"ha":778,"x_min":100,"x_max":680,"o":"m 574 0 q 568 28 571 12 q 564 64 566 43 q 559 114 562 85 q 479 20 534 52 q 355 -13 425 -13 q 163 55 227 -13 q 100 249 100 122 l 100 694 l 227 694 l 227 248 q 233 185 227 215 q 255 134 239 156 q 296 99 271 112 q 361 86 322 86 q 450 104 415 86 q 506 152 485 121 q 534 225 526 183 q 543 316 543 267 l 543 694 l 669 694 l 669 255 q 670 144 669 191 q 674 64 672 97 q 680 0 677 27 l 574 0 m 263 790 l 377 1000 l 526 1000 l 352 790 l 263 790 z "},"û":{"ha":778,"x_min":100,"x_max":680,"o":"m 574 0 q 568 28 571 12 q 564 64 566 43 q 559 114 562 85 q 479 20 534 52 q 355 -13 425 -13 q 163 55 227 -13 q 100 249 100 122 l 100 694 l 227 694 l 227 248 q 233 185 227 215 q 255 134 239 156 q 296 99 271 112 q 361 86 322 86 q 450 104 415 86 q 506 152 485 121 q 534 225 526 183 q 543 316 543 267 l 543 694 l 669 694 l 669 255 q 670 144 669 191 q 674 64 672 97 q 680 0 677 27 l 574 0 m 501 805 l 391 958 l 278 805 l 155 805 l 332 1048 l 455 1048 l 629 805 l 501 805 z "},"ü":{"ha":778,"x_min":100,"x_max":680,"o":"m 574 0 q 568 28 571 12 q 564 64 566 43 q 559 114 562 85 q 479 20 534 52 q 355 -13 425 -13 q 163 55 227 -13 q 100 249 100 122 l 100 694 l 227 694 l 227 248 q 233 185 227 215 q 255 134 239 156 q 296 99 271 112 q 361 86 322 86 q 450 104 415 86 q 506 152 485 121 q 534 225 526 183 q 543 316 543 267 l 543 694 l 669 694 l 669 255 q 670 144 669 191 q 674 64 672 97 q 680 0 677 27 l 574 0 m 340 934 l 340 817 l 190 817 l 190 934 l 340 934 m 597 934 l 597 817 l 446 817 l 446 934 l 597 934 z "},"ý":{"ha":695,"x_min":9,"x_max":686,"o":"m 389 -60 q 360 -127 376 -92 q 321 -192 344 -162 q 270 -240 299 -221 q 203 -260 241 -260 q 174 -257 189 -260 q 137 -248 158 -254 l 137 -154 q 163 -161 153 -159 q 182 -163 174 -163 q 216 -151 202 -163 q 241 -119 231 -139 q 261 -73 252 -98 q 277 -20 269 -47 l 283 3 l 9 694 l 149 694 l 269 366 l 350 133 l 432 366 l 549 694 l 686 694 l 389 -60 m 220 790 l 334 1000 l 483 1000 l 309 790 l 220 790 z "},"þ":{"ha":791,"x_min":107,"x_max":723,"o":"m 107 -282 q 107 -107 107 -183 q 107 28 107 -31 q 107 130 107 86 q 108 207 108 173 q 108 267 108 240 q 108 319 108 294 l 108 983 l 234 983 l 234 762 l 233 605 q 269 642 248 624 q 314 675 289 661 q 371 698 340 689 q 441 707 403 707 q 567 678 514 707 q 655 600 621 649 q 706 488 690 551 q 723 354 723 424 q 707 223 723 288 q 658 106 692 158 q 569 22 624 54 q 437 -10 515 -10 q 387 -4 413 -10 q 333 14 360 1 q 280 44 307 26 q 231 90 254 63 l 234 13 l 234 -282 l 107 -282 m 233 347 q 235 293 233 321 q 244 235 237 264 q 263 181 251 207 q 295 135 275 155 q 344 103 315 115 q 413 92 373 92 q 497 113 463 92 q 551 170 531 134 q 581 253 572 206 q 589 350 589 299 q 583 438 589 393 q 556 522 576 484 q 503 583 537 559 q 416 607 469 607 q 346 595 375 607 q 296 562 316 583 q 263 515 275 542 q 244 459 251 488 q 235 401 237 431 q 233 347 233 372 z "},"ÿ":{"ha":695,"x_min":9,"x_max":686,"o":"m 389 -60 q 360 -127 376 -92 q 321 -192 344 -162 q 270 -240 299 -221 q 203 -260 241 -260 q 174 -257 189 -260 q 137 -248 158 -254 l 137 -154 q 163 -161 153 -159 q 182 -163 174 -163 q 216 -151 202 -163 q 241 -119 231 -139 q 261 -73 252 -98 q 277 -20 269 -47 l 283 3 l 9 694 l 149 694 l 269 366 l 350 133 l 432 366 l 549 694 l 686 694 l 389 -60 m 298 934 l 298 817 l 147 817 l 147 934 l 298 934 m 554 934 l 554 817 l 404 817 l 404 934 l 554 934 z "},"ı":{"ha":337,"x_min":105,"x_max":230,"o":"m 105 691 l 230 691 l 230 0 l 105 0 l 105 691 z "},"Ł":{"ha":699,"x_min":50,"x_max":675,"o":"m 133 0 l 133 350 l 50 299 l 50 412 l 133 462 l 133 958 l 265 958 l 265 542 l 517 695 l 517 583 l 265 431 l 265 122 l 675 122 l 675 0 l 133 0 z "},"ł":{"ha":660,"x_min":24,"x_max":640,"o":"m 266 387 l 24 300 l 24 411 l 266 498 l 266 983 l 394 983 l 394 545 l 640 633 l 640 522 l 394 433 l 394 0 l 266 0 l 266 387 z "},"Œ":{"ha":1356,"x_min":73,"x_max":1272,"o":"m 1272 0 l 504 0 q 340 30 418 0 q 202 119 262 59 q 108 270 143 179 q 73 485 73 361 q 81 595 73 538 q 110 705 90 651 q 165 806 131 758 q 251 889 199 854 q 374 946 303 925 q 537 967 444 967 q 570 966 549 967 q 614 965 591 966 q 660 963 637 964 q 695 962 682 962 q 704 962 699 962 q 728 962 710 962 q 781 963 746 962 q 879 963 817 963 q 1037 963 942 963 q 1267 963 1131 963 l 1267 843 l 819 843 l 819 554 l 1247 554 l 1247 434 l 819 434 l 819 123 l 1272 123 l 1272 0 m 678 846 q 602 851 634 849 q 537 852 570 852 q 411 833 463 852 q 323 784 358 814 q 267 714 288 753 q 235 634 245 675 q 221 555 224 593 q 218 487 218 516 q 221 411 218 452 q 237 329 225 370 q 272 250 249 288 q 332 183 294 212 q 425 137 370 154 q 558 119 480 119 q 586 119 573 119 q 613 120 600 119 q 643 120 627 120 q 678 121 659 121 l 678 846 z "},"œ":{"ha":1242,"x_min":64,"x_max":1181,"o":"m 393 -20 q 284 -5 332 -20 q 199 36 236 10 q 137 96 163 62 q 95 170 111 131 q 71 249 79 208 q 64 329 64 290 q 86 463 64 399 q 151 576 108 527 q 256 653 193 625 q 399 682 318 682 q 501 666 458 682 q 573 627 543 650 q 622 577 603 604 q 652 528 640 550 q 691 591 669 565 q 738 635 713 617 q 788 663 763 652 q 836 679 813 673 q 876 685 858 684 q 903 686 893 686 q 1011 669 966 686 q 1087 624 1057 652 q 1136 559 1118 596 q 1164 485 1154 523 q 1177 408 1174 446 q 1181 339 1180 370 l 1181 308 l 720 308 q 718 293 718 300 q 717 278 717 286 q 731 205 717 241 q 769 143 745 170 q 826 98 793 115 q 898 81 859 81 q 952 91 927 81 q 995 118 977 101 q 1026 160 1014 136 q 1043 214 1039 184 l 1171 214 q 1147 127 1164 164 q 1107 65 1130 91 q 1057 22 1084 39 q 1003 -4 1030 5 q 949 -18 975 -14 q 903 -22 923 -22 q 822 -9 861 -22 q 750 23 783 3 q 692 72 718 44 q 651 132 667 100 q 546 20 612 61 q 393 -20 479 -20 m 205 338 q 206 305 205 328 q 212 254 207 282 q 229 194 217 225 q 262 138 241 163 q 318 96 284 113 q 401 80 351 80 q 466 91 437 80 q 516 121 495 102 q 552 165 537 140 q 575 219 566 191 q 588 276 585 247 q 592 333 592 305 q 582 424 592 379 q 550 503 572 468 q 491 560 528 538 q 403 581 455 581 q 307 558 345 581 q 246 499 269 535 q 214 421 223 464 q 205 338 205 378 m 898 588 q 815 570 848 588 q 763 524 783 551 q 734 465 743 496 q 724 409 726 434 l 1045 409 q 1042 442 1044 423 q 1035 481 1040 461 q 1020 520 1029 501 q 994 554 1010 539 q 954 579 977 570 q 898 588 930 588 z "},"Š":{"ha":743,"x_min":59,"x_max":674,"o":"m 332 101 q 428 113 387 101 q 494 147 468 125 q 533 197 520 168 q 545 260 545 226 q 534 319 545 294 q 497 365 522 345 q 433 404 473 385 q 339 441 394 422 q 218 496 267 467 q 138 559 169 525 q 95 634 108 593 q 81 726 81 675 q 104 834 81 787 q 168 913 127 882 q 263 962 208 945 q 380 978 317 978 q 517 956 446 978 q 661 885 587 934 l 609 786 q 491 843 547 825 q 383 860 434 860 q 256 825 300 860 q 211 728 211 790 q 220 669 211 694 q 252 626 230 645 q 308 590 273 606 q 395 557 343 574 q 540 495 485 526 q 625 430 595 464 q 664 357 654 396 q 674 272 674 319 q 651 151 674 205 q 586 60 629 98 q 481 2 543 22 q 340 -18 419 -18 q 208 2 278 -18 q 59 63 137 21 l 102 169 q 225 118 168 135 q 332 101 281 101 m 439 1040 l 315 1040 l 163 1251 l 283 1251 l 376 1128 l 465 1251 l 591 1251 l 439 1040 z "},"š":{"ha":625,"x_min":56,"x_max":562,"o":"m 96 150 q 140 122 116 134 q 191 102 165 111 q 245 90 218 94 q 298 86 273 86 q 351 92 326 86 q 395 111 376 98 q 425 143 414 124 q 436 189 436 163 q 429 221 436 207 q 406 250 422 236 q 360 276 389 263 q 288 306 332 290 q 200 341 240 323 q 133 381 161 359 q 89 436 104 404 q 73 513 73 467 q 94 598 73 562 q 148 659 114 635 q 227 694 182 682 q 320 706 272 706 q 443 688 381 706 q 555 633 504 669 l 513 546 q 467 571 491 560 q 417 590 442 583 q 368 603 392 598 q 323 607 344 607 q 273 602 296 607 q 232 586 250 596 q 205 559 215 575 q 195 523 195 543 q 204 488 195 504 q 232 459 214 473 q 276 434 250 446 q 335 410 302 422 q 440 366 397 388 q 511 320 484 345 q 550 266 538 296 q 562 198 562 237 q 539 104 562 144 q 477 38 515 64 q 391 0 439 12 q 290 -13 342 -13 q 168 4 225 -13 q 56 58 111 22 l 96 150 m 376 772 l 252 772 l 100 983 l 220 983 l 313 861 l 401 983 l 528 983 l 376 772 z "},"Ÿ":{"ha":796,"x_min":-6,"x_max":802,"o":"m 403 490 l 653 958 l 802 958 l 466 371 l 466 0 l 330 0 l 330 371 l -6 958 l 151 958 l 403 490 m 342 1202 l 342 1085 l 191 1085 l 191 1202 l 342 1202 m 598 1202 l 598 1085 l 448 1085 l 448 1202 l 598 1202 z "},"Ž":{"ha":795,"x_min":60,"x_max":734,"o":"m 734 0 l 60 0 l 60 121 l 564 836 l 75 836 l 75 958 l 722 958 l 722 838 l 217 122 l 734 122 l 734 0 m 467 1040 l 342 1040 l 191 1251 l 311 1251 l 403 1128 l 492 1251 l 618 1251 l 467 1040 z "},"ž":{"ha":601,"x_min":58,"x_max":536,"o":"m 536 0 l 58 0 l 58 113 l 389 593 l 77 593 l 77 694 l 532 694 l 532 590 l 194 101 l 536 101 l 536 0 m 377 772 l 252 772 l 101 983 l 221 983 l 313 861 l 402 983 l 529 983 l 377 772 z "},"ƒ":{"ha":475,"x_min":-66,"x_max":517,"o":"m 71 558 l 191 558 l 220 699 q 241 777 228 739 q 279 845 254 815 q 342 892 303 874 q 441 910 381 910 q 477 908 459 910 q 517 903 494 906 l 501 800 q 478 802 490 800 q 452 804 467 804 q 404 794 423 804 q 372 769 385 785 q 353 734 360 753 q 341 694 346 714 l 312 558 l 451 558 q 445 528 448 545 q 438 496 441 511 q 431 461 435 479 l 295 461 l 216 37 q 187 -91 202 -36 q 145 -184 172 -146 q 77 -241 119 -222 q -32 -260 35 -260 q -45 -260 -37 -260 q -66 -258 -54 -260 q -57 -205 -61 -230 q -48 -155 -52 -180 q -34 -157 -40 -156 q -25 -157 -28 -157 q 33 -142 13 -157 q 63 -98 52 -127 q 79 -27 73 -69 q 96 71 85 16 l 171 461 l 53 461 l 71 558 z "},"Ȁ":{"ha":878,"x_min":13,"x_max":863,"o":"m 13 43 l 375 958 l 506 958 l 863 40 l 863 0 l 735 0 l 632 269 l 237 269 l 132 0 l 13 0 l 13 43 m 371 629 l 281 385 l 589 385 l 501 629 l 437 812 l 371 629 m 674 1014 l 582 1014 l 414 1213 l 561 1213 l 674 1014 m 465 1014 l 372 1014 l 204 1213 l 351 1213 l 465 1014 z "},"ȁ":{"ha":705,"x_min":52,"x_max":617,"o":"m 104 623 q 163 656 132 642 q 228 683 195 671 q 296 700 262 694 q 361 706 330 706 q 454 693 410 706 q 531 654 498 681 q 583 585 564 627 q 602 484 602 543 l 602 204 q 604 121 602 158 q 609 56 606 83 q 617 0 612 24 l 503 0 q 499 43 500 12 q 496 113 497 74 q 447 51 473 75 q 392 12 420 26 q 334 -7 363 -2 q 275 -13 304 -13 q 182 1 224 -13 q 112 41 141 15 q 68 105 83 68 q 52 189 52 142 q 57 237 52 212 q 74 286 62 262 q 104 333 85 311 q 151 373 123 355 q 217 402 181 392 q 291 418 253 413 q 368 424 330 423 q 443 425 407 425 l 479 425 l 479 475 q 470 538 479 513 q 444 579 460 564 q 404 601 427 594 q 357 608 382 608 q 299 601 329 608 q 241 585 269 595 q 187 562 212 574 q 142 538 161 550 l 104 623 m 438 142 q 459 176 451 157 q 471 217 467 194 q 477 269 475 240 q 479 333 479 297 l 459 333 q 362 330 412 333 q 271 312 313 326 q 202 268 229 298 q 176 187 176 239 q 182 150 176 168 q 201 118 188 132 q 234 95 214 104 q 283 86 254 86 q 373 100 332 86 q 438 142 414 115 m 578 785 l 486 785 l 318 984 l 465 984 l 578 785 m 370 785 l 277 785 l 109 984 l 255 984 l 370 785 z "},"Ȃ":{"ha":878,"x_min":13,"x_max":863,"o":"m 13 43 l 375 958 l 506 958 l 863 40 l 863 0 l 735 0 l 632 269 l 237 269 l 132 0 l 13 0 l 13 43 m 371 629 l 281 385 l 589 385 l 501 629 l 437 812 l 371 629 m 256 1010 q 257 1047 256 1025 q 264 1094 259 1069 q 281 1141 270 1118 q 313 1184 293 1165 q 363 1215 333 1203 q 437 1227 393 1227 q 576 1172 530 1227 q 623 1010 621 1116 l 555 1010 q 550 1044 554 1023 q 533 1085 545 1065 q 497 1119 520 1105 q 437 1134 474 1134 q 354 1101 380 1134 q 323 1010 327 1068 l 256 1010 z "},"ȃ":{"ha":705,"x_min":52,"x_max":617,"o":"m 104 623 q 163 656 132 642 q 228 683 195 671 q 296 700 262 694 q 361 706 330 706 q 454 693 410 706 q 531 654 498 681 q 583 585 564 627 q 602 484 602 543 l 602 204 q 604 121 602 158 q 609 56 606 83 q 617 0 612 24 l 503 0 q 499 43 500 12 q 496 113 497 74 q 447 51 473 75 q 392 12 420 26 q 334 -7 363 -2 q 275 -13 304 -13 q 182 1 224 -13 q 112 41 141 15 q 68 105 83 68 q 52 189 52 142 q 57 237 52 212 q 74 286 62 262 q 104 333 85 311 q 151 373 123 355 q 217 402 181 392 q 291 418 253 413 q 368 424 330 423 q 443 425 407 425 l 479 425 l 479 475 q 470 538 479 513 q 444 579 460 564 q 404 601 427 594 q 357 608 382 608 q 299 601 329 608 q 241 585 269 595 q 187 562 212 574 q 142 538 161 550 l 104 623 m 438 142 q 459 176 451 157 q 471 217 467 194 q 477 269 475 240 q 479 333 479 297 l 459 333 q 362 330 412 333 q 271 312 313 326 q 202 268 229 298 q 176 187 176 239 q 182 150 176 168 q 201 118 188 132 q 234 95 214 104 q 283 86 254 86 q 373 100 332 86 q 438 142 414 115 m 160 782 q 162 819 160 797 q 169 865 163 841 q 186 913 174 889 q 217 956 197 937 q 268 986 237 975 q 341 998 298 998 q 480 943 435 998 q 527 782 526 888 l 460 782 q 454 816 458 795 q 437 857 450 837 q 401 891 425 876 q 341 905 378 905 q 258 872 285 905 q 228 782 231 840 l 160 782 z "},"Ȅ":{"ha":772,"x_min":129,"x_max":690,"o":"m 690 0 l 129 0 l 129 958 l 684 958 l 684 839 l 262 839 l 262 555 l 660 555 l 660 436 l 262 436 l 262 121 l 690 121 l 690 0 m 633 1014 l 541 1014 l 373 1213 l 520 1213 l 633 1014 m 425 1014 l 332 1014 l 163 1213 l 310 1213 l 425 1014 z "},"ȅ":{"ha":707,"x_min":67,"x_max":645,"o":"m 627 56 q 582 31 606 43 q 528 9 557 18 q 461 -7 498 -1 q 377 -13 424 -13 q 249 11 306 -13 q 151 80 191 35 q 89 193 111 126 q 67 346 67 260 q 85 483 67 418 q 139 597 102 548 q 231 676 175 647 q 365 706 288 706 q 491 680 438 706 q 578 611 544 654 q 629 508 612 567 q 645 384 645 450 l 645 328 l 193 328 q 204 237 194 281 q 235 160 214 193 q 292 106 257 126 q 380 86 328 86 q 493 102 442 86 q 589 146 543 117 l 627 56 m 362 607 q 301 597 330 607 q 252 567 273 587 q 217 514 231 546 q 198 439 203 483 q 197 430 197 436 q 197 417 197 424 l 512 417 q 503 489 511 454 q 479 550 496 524 q 433 591 462 576 q 362 607 405 607 m 589 785 l 497 785 l 329 984 l 476 984 l 589 785 m 380 785 l 288 785 l 119 984 l 266 984 l 380 785 z "},"Ȇ":{"ha":772,"x_min":129,"x_max":690,"o":"m 690 0 l 129 0 l 129 958 l 684 958 l 684 839 l 262 839 l 262 555 l 660 555 l 660 436 l 262 436 l 262 121 l 690 121 l 690 0 m 215 1010 q 217 1047 215 1025 q 224 1094 218 1069 q 241 1141 229 1118 q 272 1184 252 1165 q 322 1215 292 1203 q 396 1227 353 1227 q 535 1172 490 1227 q 582 1010 581 1116 l 515 1010 q 509 1044 513 1023 q 492 1085 505 1065 q 456 1119 479 1105 q 396 1134 433 1134 q 313 1101 340 1134 q 283 1010 286 1068 l 215 1010 z "},"ȇ":{"ha":707,"x_min":67,"x_max":645,"o":"m 627 56 q 582 31 606 43 q 528 9 557 18 q 461 -7 498 -1 q 377 -13 424 -13 q 249 11 306 -13 q 151 80 191 35 q 89 193 111 126 q 67 346 67 260 q 85 483 67 418 q 139 597 102 548 q 231 676 175 647 q 365 706 288 706 q 491 680 438 706 q 578 611 544 654 q 629 508 612 567 q 645 384 645 450 l 645 328 l 193 328 q 204 237 194 281 q 235 160 214 193 q 292 106 257 126 q 380 86 328 86 q 493 102 442 86 q 589 146 543 117 l 627 56 m 362 607 q 301 597 330 607 q 252 567 273 587 q 217 514 231 546 q 198 439 203 483 q 197 430 197 436 q 197 417 197 424 l 512 417 q 503 489 511 454 q 479 550 496 524 q 433 591 462 576 q 362 607 405 607 m 171 782 q 173 819 171 797 q 180 865 174 841 q 197 913 185 889 q 228 956 208 937 q 278 986 248 975 q 352 998 309 998 q 491 943 446 998 q 538 782 536 888 l 471 782 q 465 816 469 795 q 448 857 460 837 q 412 891 435 876 q 352 905 389 905 q 269 872 296 905 q 239 782 242 840 l 171 782 z "},"Ȉ":{"ha":391,"x_min":-36,"x_max":434,"o":"m 130 0 l 130 958 l 262 958 l 262 0 l 130 0 m 434 1014 l 342 1014 l 174 1213 l 321 1213 l 434 1014 m 225 1014 l 132 1014 l -36 1213 l 111 1213 l 225 1014 z "},"ȉ":{"ha":337,"x_min":-64,"x_max":406,"o":"m 105 691 l 230 691 l 230 0 l 105 0 l 105 691 m 406 785 l 313 785 l 145 984 l 292 984 l 406 785 m 197 785 l 104 785 l -64 984 l 82 984 l 197 785 z "},"Ȋ":{"ha":392,"x_min":14,"x_max":381,"o":"m 130 0 l 130 958 l 262 958 l 262 0 l 130 0 m 14 1010 q 16 1047 14 1025 q 23 1094 18 1069 q 40 1141 28 1118 q 72 1184 52 1165 q 122 1215 92 1203 q 195 1227 152 1227 q 334 1172 289 1227 q 381 1010 380 1116 l 314 1010 q 308 1044 313 1023 q 291 1085 304 1065 q 256 1119 279 1105 q 195 1134 233 1134 q 112 1101 139 1134 q 82 1010 85 1068 l 14 1010 z "},"ȋ":{"ha":374,"x_min":9,"x_max":376,"o":"m 267 0 l 140 0 l 140 593 l 37 593 l 37 694 l 267 694 l 267 0 m 279 934 l 279 817 l 128 817 l 128 934 l 279 934 m 9 782 q 11 819 9 797 q 18 865 12 841 q 35 913 23 889 q 66 956 46 937 q 116 986 86 975 q 190 998 146 998 q 329 943 283 998 q 376 782 374 888 l 309 782 q 303 816 307 795 q 286 857 298 837 q 250 891 273 876 q 190 905 227 905 q 107 872 134 905 q 77 782 80 840 l 9 782 z "},"Ȍ":{"ha":1006,"x_min":76,"x_max":930,"o":"m 503 -18 q 362 1 425 -18 q 253 53 300 20 q 172 132 205 86 q 117 233 138 178 q 86 350 96 288 q 76 477 76 412 q 86 606 76 543 q 119 725 97 669 q 175 827 141 781 q 257 907 210 873 q 366 959 304 941 q 503 978 427 978 q 641 959 579 978 q 749 907 702 941 q 831 827 797 873 q 887 725 865 781 q 919 606 909 669 q 930 477 930 543 q 920 350 930 412 q 889 233 910 288 q 834 132 868 178 q 753 53 801 86 q 644 1 706 20 q 503 -18 582 -18 m 503 101 q 643 132 587 101 q 730 214 698 162 q 776 335 763 267 q 789 480 789 404 q 775 629 789 559 q 728 749 762 698 q 640 830 695 801 q 503 860 585 860 q 366 830 421 860 q 278 749 311 801 q 231 629 245 698 q 216 480 216 559 q 230 335 216 404 q 275 214 243 267 q 363 132 308 162 q 503 101 418 101 m 740 1014 l 648 1014 l 479 1213 l 627 1213 l 740 1014 m 531 1014 l 438 1014 l 270 1213 l 416 1213 l 531 1014 z "},"ȍ":{"ha":766,"x_min":66,"x_max":699,"o":"m 699 347 q 679 202 699 268 q 617 88 658 136 q 517 14 577 40 q 380 -13 458 -13 q 248 13 306 -13 q 149 85 189 39 q 88 197 109 132 q 66 341 66 262 q 85 482 66 416 q 142 598 103 548 q 242 677 181 648 q 388 706 303 706 q 530 676 471 706 q 627 595 589 646 q 682 480 665 545 q 699 347 699 416 m 193 342 q 203 239 193 286 q 237 158 214 192 q 296 105 260 124 q 382 86 332 86 q 458 101 423 86 q 518 147 493 115 q 558 227 544 178 q 572 345 572 276 q 525 539 572 471 q 387 607 477 607 q 314 592 349 607 q 252 546 279 578 q 209 463 224 513 q 193 342 193 413 m 621 785 l 529 785 l 361 984 l 508 984 l 621 785 m 412 785 l 319 785 l 151 984 l 298 984 l 412 785 z "},"Ȏ":{"ha":1006,"x_min":76,"x_max":930,"o":"m 503 -18 q 362 1 425 -18 q 253 53 300 20 q 172 132 205 86 q 117 233 138 178 q 86 350 96 288 q 76 477 76 412 q 86 606 76 543 q 119 725 97 669 q 175 827 141 781 q 257 907 210 873 q 366 959 304 941 q 503 978 427 978 q 641 959 579 978 q 749 907 702 941 q 831 827 797 873 q 887 725 865 781 q 919 606 909 669 q 930 477 930 543 q 920 350 930 412 q 889 233 910 288 q 834 132 868 178 q 753 53 801 86 q 644 1 706 20 q 503 -18 582 -18 m 503 101 q 643 132 587 101 q 730 214 698 162 q 776 335 763 267 q 789 480 789 404 q 775 629 789 559 q 728 749 762 698 q 640 830 695 801 q 503 860 585 860 q 366 830 421 860 q 278 749 311 801 q 231 629 245 698 q 216 480 216 559 q 230 335 216 404 q 275 214 243 267 q 363 132 308 162 q 503 101 418 101 m 321 1010 q 323 1047 321 1025 q 330 1094 325 1069 q 347 1141 336 1118 q 379 1184 359 1165 q 429 1215 399 1203 q 503 1227 459 1227 q 642 1172 596 1227 q 688 1010 687 1116 l 621 1010 q 615 1044 620 1023 q 598 1085 611 1065 q 563 1119 586 1105 q 503 1134 540 1134 q 419 1101 446 1134 q 389 1010 393 1068 l 321 1010 z "},"ȏ":{"ha":766,"x_min":66,"x_max":699,"o":"m 699 347 q 679 202 699 268 q 617 88 658 136 q 517 14 577 40 q 380 -13 458 -13 q 248 13 306 -13 q 149 85 189 39 q 88 197 109 132 q 66 341 66 262 q 85 482 66 416 q 142 598 103 548 q 242 677 181 648 q 388 706 303 706 q 530 676 471 706 q 627 595 589 646 q 682 480 665 545 q 699 347 699 416 m 193 342 q 203 239 193 286 q 237 158 214 192 q 296 105 260 124 q 382 86 332 86 q 458 101 423 86 q 518 147 493 115 q 558 227 544 178 q 572 345 572 276 q 525 539 572 471 q 387 607 477 607 q 314 592 349 607 q 252 546 279 578 q 209 463 224 513 q 193 342 193 413 m 203 782 q 204 819 203 797 q 212 865 206 841 q 229 913 217 889 q 260 956 240 937 q 310 986 280 975 q 384 998 340 998 q 523 943 477 998 q 570 782 568 888 l 503 782 q 497 816 501 795 q 480 857 492 837 q 444 891 467 876 q 384 905 421 905 q 301 872 328 905 q 271 782 274 840 l 203 782 z "},"Ȑ":{"ha":871,"x_min":130,"x_max":802,"o":"m 130 0 l 130 958 l 423 958 q 545 945 486 958 q 651 904 605 933 q 726 827 698 875 q 755 707 755 779 q 743 624 755 661 q 708 558 730 587 q 652 507 685 528 q 579 469 620 485 q 665 436 633 456 q 714 388 696 416 q 740 321 732 359 q 755 236 748 283 q 771 129 762 188 q 802 0 781 71 l 660 0 q 638 133 646 74 q 622 238 630 193 q 603 317 614 284 q 570 371 591 350 q 516 402 549 392 q 431 412 483 412 l 262 412 l 262 0 l 130 0 m 262 512 l 419 512 q 496 522 460 512 q 559 552 532 531 q 601 607 586 573 q 616 691 616 642 q 597 772 616 743 q 546 818 577 802 q 476 837 515 833 q 401 840 438 840 l 262 840 l 262 512 m 666 1014 l 574 1014 l 406 1213 l 553 1213 l 666 1014 m 457 1014 l 364 1014 l 196 1213 l 342 1213 l 457 1014 z "},"ȑ":{"ha":508,"x_min":20,"x_max":490,"o":"m 108 516 q 107 547 108 525 q 107 596 107 570 q 105 651 106 623 q 104 695 104 680 l 222 695 l 229 574 q 277 635 251 610 q 331 676 304 661 q 383 699 357 692 q 431 706 409 706 q 460 705 444 706 q 490 702 476 704 l 482 577 q 448 583 464 581 q 414 585 431 585 q 333 569 367 585 q 278 524 299 553 q 246 456 256 496 q 236 370 236 417 l 236 0 l 108 0 l 108 516 m 490 785 l 398 785 l 230 984 l 377 984 l 490 785 m 281 785 l 189 785 l 20 984 l 167 984 l 281 785 z "},"Ȓ":{"ha":871,"x_min":130,"x_max":802,"o":"m 130 0 l 130 958 l 423 958 q 545 945 486 958 q 651 904 605 933 q 726 827 698 875 q 755 707 755 779 q 743 624 755 661 q 708 558 730 587 q 652 507 685 528 q 579 469 620 485 q 665 436 633 456 q 714 388 696 416 q 740 321 732 359 q 755 236 748 283 q 771 129 762 188 q 802 0 781 71 l 660 0 q 638 133 646 74 q 622 238 630 193 q 603 317 614 284 q 570 371 591 350 q 516 402 549 392 q 431 412 483 412 l 262 412 l 262 0 l 130 0 m 262 512 l 419 512 q 496 522 460 512 q 559 552 532 531 q 601 607 586 573 q 616 691 616 642 q 597 772 616 743 q 546 818 577 802 q 476 837 515 833 q 401 840 438 840 l 262 840 l 262 512 m 248 1010 q 249 1047 248 1025 q 256 1094 251 1069 q 273 1141 262 1118 q 305 1184 285 1165 q 355 1215 325 1203 q 429 1227 385 1227 q 568 1172 522 1227 q 614 1010 613 1116 l 547 1010 q 542 1044 546 1023 q 525 1085 537 1065 q 489 1119 512 1105 q 429 1134 466 1134 q 346 1101 372 1134 q 315 1010 319 1068 l 248 1010 z "},"ȓ":{"ha":508,"x_min":71,"x_max":490,"o":"m 108 516 q 107 547 108 525 q 107 596 107 570 q 105 651 106 623 q 104 695 104 680 l 222 695 l 229 574 q 277 635 251 610 q 331 676 304 661 q 383 699 357 692 q 431 706 409 706 q 460 705 444 706 q 490 702 476 704 l 482 577 q 448 583 464 581 q 414 585 431 585 q 333 569 367 585 q 278 524 299 553 q 246 456 256 496 q 236 370 236 417 l 236 0 l 108 0 l 108 516 m 71 782 q 72 819 71 797 q 79 865 74 841 q 96 913 85 889 q 128 956 108 937 q 178 986 148 975 q 252 998 208 998 q 391 943 345 998 q 437 782 436 888 l 370 782 q 365 816 369 795 q 348 857 360 837 q 312 891 335 876 q 252 905 289 905 q 169 872 195 905 q 138 782 142 840 l 71 782 z "},"Ȕ":{"ha":978,"x_min":119,"x_max":859,"o":"m 859 958 l 859 355 q 832 202 859 271 q 757 85 806 134 q 640 9 708 36 q 490 -18 572 -18 q 339 6 408 -18 q 222 78 271 31 q 146 196 173 125 q 119 360 119 267 l 119 958 l 252 958 l 252 352 q 273 228 252 277 q 329 151 294 179 q 406 113 363 123 q 492 102 449 102 q 581 114 544 102 q 645 145 618 125 q 688 191 671 165 q 713 245 704 217 q 725 302 722 273 q 728 355 728 330 l 728 958 l 859 958 m 728 1014 l 635 1014 l 467 1213 l 614 1213 l 728 1014 m 519 1014 l 426 1014 l 258 1213 l 404 1213 l 519 1014 z "},"ȕ":{"ha":778,"x_min":100,"x_max":680,"o":"m 574 0 q 568 28 571 12 q 564 64 566 43 q 559 114 562 85 q 479 20 534 52 q 355 -13 425 -13 q 163 55 227 -13 q 100 249 100 122 l 100 694 l 227 694 l 227 248 q 233 185 227 215 q 255 134 239 156 q 296 99 271 112 q 361 86 322 86 q 450 104 415 86 q 506 152 485 121 q 534 225 526 183 q 543 316 543 267 l 543 694 l 669 694 l 669 255 q 670 144 669 191 q 674 64 672 97 q 680 0 677 27 l 574 0 m 622 785 l 530 785 l 361 984 l 509 984 l 622 785 m 413 785 l 320 785 l 152 984 l 298 984 l 413 785 z "},"Ȗ":{"ha":978,"x_min":119,"x_max":859,"o":"m 859 958 l 859 355 q 832 202 859 271 q 757 85 806 134 q 640 9 708 36 q 490 -18 572 -18 q 339 6 408 -18 q 222 78 271 31 q 146 196 173 125 q 119 360 119 267 l 119 958 l 252 958 l 252 352 q 273 228 252 277 q 329 151 294 179 q 406 113 363 123 q 492 102 449 102 q 581 114 544 102 q 645 145 618 125 q 688 191 671 165 q 713 245 704 217 q 725 302 722 273 q 728 355 728 330 l 728 958 l 859 958 m 309 1010 q 311 1047 309 1025 q 318 1094 313 1069 q 335 1141 323 1118 q 367 1184 347 1165 q 417 1215 387 1203 q 490 1227 447 1227 q 629 1172 584 1227 q 676 1010 675 1116 l 609 1010 q 603 1044 608 1023 q 586 1085 599 1065 q 551 1119 574 1105 q 490 1134 528 1134 q 407 1101 434 1134 q 377 1010 380 1068 l 309 1010 z "},"ȗ":{"ha":778,"x_min":100,"x_max":680,"o":"m 574 0 q 568 28 571 12 q 564 64 566 43 q 559 114 562 85 q 479 20 534 52 q 355 -13 425 -13 q 163 55 227 -13 q 100 249 100 122 l 100 694 l 227 694 l 227 248 q 233 185 227 215 q 255 134 239 156 q 296 99 271 112 q 361 86 322 86 q 450 104 415 86 q 506 152 485 121 q 534 225 526 183 q 543 316 543 267 l 543 694 l 669 694 l 669 255 q 670 144 669 191 q 674 64 672 97 q 680 0 677 27 l 574 0 m 203 782 q 205 819 203 797 q 212 865 207 841 q 229 913 218 889 q 261 956 241 937 q 311 986 281 975 q 385 998 341 998 q 524 943 478 998 q 570 782 569 888 l 503 782 q 497 816 502 795 q 480 857 493 837 q 445 891 468 876 q 385 905 422 905 q 301 872 328 905 q 271 782 275 840 l 203 782 z "},"Ș":{"ha":744,"x_min":60,"x_max":675,"o":"m 333 101 q 429 113 389 101 q 495 147 469 125 q 534 197 522 168 q 547 260 547 226 q 535 319 547 294 q 499 365 524 345 q 435 404 474 385 q 340 441 395 422 q 219 496 269 467 q 140 559 170 525 q 96 634 109 593 q 83 726 83 675 q 106 834 83 787 q 169 913 129 882 q 264 962 210 945 q 382 978 319 978 q 518 956 448 978 q 663 885 589 934 l 610 786 q 492 843 549 825 q 385 860 435 860 q 257 825 302 860 q 212 728 212 790 q 222 669 212 694 q 253 626 231 645 q 310 590 275 606 q 396 557 345 574 q 541 495 486 526 q 626 430 596 464 q 666 357 656 396 q 675 272 675 319 q 653 151 675 205 q 587 60 630 98 q 483 2 545 22 q 341 -18 420 -18 q 209 2 279 -18 q 60 63 138 21 l 104 169 q 226 118 170 135 q 333 101 283 101 m 215 -406 l 291 -73 l 441 -73 l 310 -406 l 215 -406 z "},"ș":{"ha":625,"x_min":56,"x_max":562,"o":"m 96 150 q 140 122 116 134 q 191 102 165 111 q 245 90 218 94 q 298 86 273 86 q 351 92 326 86 q 395 111 376 98 q 425 143 414 124 q 436 189 436 163 q 429 221 436 207 q 406 250 422 236 q 360 276 389 263 q 288 306 332 290 q 200 341 240 323 q 133 381 161 359 q 89 436 104 404 q 73 513 73 467 q 94 598 73 562 q 148 659 114 635 q 227 694 182 682 q 320 706 272 706 q 443 688 381 706 q 555 633 504 669 l 513 546 q 467 571 491 560 q 417 590 442 583 q 368 603 392 598 q 323 607 344 607 q 273 602 296 607 q 232 586 250 596 q 205 559 215 575 q 195 523 195 543 q 204 488 195 504 q 232 459 214 473 q 276 434 250 446 q 335 410 302 422 q 440 366 397 388 q 511 320 484 345 q 550 266 538 296 q 562 198 562 237 q 539 104 562 144 q 477 38 515 64 q 391 0 439 12 q 290 -13 342 -13 q 168 4 225 -13 q 56 58 111 22 l 96 150 m 169 -406 l 245 -73 l 395 -73 l 264 -406 l 169 -406 z "},"Ț":{"ha":774,"x_min":24,"x_max":750,"o":"m 453 0 l 321 0 l 321 839 l 24 839 l 24 958 l 750 958 l 750 839 l 453 839 l 453 0 m 271 -406 l 347 -73 l 497 -73 l 366 -406 l 271 -406 z "},"ț":{"ha":476,"x_min":33,"x_max":432,"o":"m 352 86 q 394 89 371 86 q 432 95 416 92 l 432 1 q 381 -8 411 -4 q 320 -13 351 -13 q 245 -4 279 -13 q 188 25 212 4 q 152 82 165 46 q 140 171 140 117 l 140 594 l 33 594 l 33 695 l 143 695 l 165 861 l 268 883 l 268 695 l 429 695 l 429 594 l 268 594 l 268 186 q 271 148 268 166 q 283 116 274 130 q 309 94 292 102 q 352 86 325 86 m 135 -406 l 211 -73 l 361 -73 l 230 -406 l 135 -406 z "},"ˆ":{"ha":553,"x_min":36,"x_max":509,"o":"m 382 805 l 271 958 l 159 805 l 36 805 l 212 1048 l 336 1048 l 509 805 l 382 805 z "},"ˇ":{"ha":370,"x_min":-26,"x_max":402,"o":"m 250 772 l 125 772 l -26 983 l 94 983 l 186 861 l 275 983 l 402 983 l 250 772 z "},"˘":{"ha":370,"x_min":1,"x_max":368,"o":"m 68 998 q 99 908 72 941 q 182 875 125 875 q 242 889 219 875 q 278 924 265 904 q 295 964 290 943 q 300 998 299 985 l 368 998 q 321 837 366 892 q 182 782 275 782 q 108 794 138 782 q 58 825 78 806 q 26 867 38 844 q 9 915 15 891 q 2 961 4 939 q 1 998 1 983 l 68 998 z "},"˙":{"ha":370,"x_min":120,"x_max":249,"o":"m 120 956 l 249 956 l 249 812 l 120 812 l 120 956 z "},"˚":{"ha":553,"x_min":113,"x_max":434,"o":"m 274 1021 q 205 994 234 1021 q 176 924 176 967 q 203 858 176 885 q 274 831 230 831 q 344 858 317 831 q 371 924 371 885 q 342 994 371 967 q 273 1021 313 1021 l 274 1021 m 273 1084 q 338 1072 307 1084 q 389 1039 368 1061 q 422 988 410 1018 q 434 924 434 959 q 422 861 434 890 q 389 812 410 833 q 338 779 368 791 q 273 768 307 768 q 209 779 239 768 q 157 812 178 791 q 124 861 136 833 q 113 924 113 890 q 124 988 113 959 q 157 1039 136 1018 q 209 1072 178 1061 q 273 1084 239 1084 z "},"˛":{"ha":370,"x_min":57,"x_max":311,"o":"m 287 10 q 242 -21 264 -5 q 204 -52 221 -36 q 178 -85 188 -68 q 168 -119 168 -102 q 179 -155 168 -142 q 204 -173 191 -167 q 232 -179 218 -178 q 249 -180 245 -180 q 281 -175 268 -180 q 311 -160 295 -170 l 311 -225 q 256 -250 286 -239 q 184 -260 227 -260 q 124 -251 149 -260 q 85 -225 100 -241 q 63 -192 70 -210 q 57 -158 57 -174 q 70 -106 57 -130 q 105 -60 83 -81 q 157 -22 127 -39 q 220 10 186 -4 l 287 10 z "},"˜":{"ha":553,"x_min":73,"x_max":490,"o":"m 363 809 q 322 817 345 809 q 275 835 298 825 q 230 852 251 844 q 195 861 209 861 q 161 847 174 861 q 138 802 149 834 l 73 802 q 83 866 73 837 q 111 915 94 895 q 151 947 128 936 q 199 959 174 959 q 242 951 220 959 q 286 934 264 943 q 328 917 307 925 q 367 909 349 909 q 404 925 391 909 q 422 968 416 940 l 490 968 q 477 897 488 926 q 449 847 466 867 q 409 818 431 827 q 363 809 387 809 z "},"˝":{"ha":533,"x_min":46,"x_max":516,"o":"m 159 984 l 307 984 l 138 785 l 46 785 l 159 984 m 370 984 l 516 984 l 348 785 l 255 785 l 370 984 z "},"̏":{"ha":533,"x_min":24,"x_max":494,"o":"m 494 785 l 402 785 l 234 984 l 381 984 l 494 785 m 286 785 l 193 785 l 24 984 l 171 984 l 286 785 z "},"̑":{"ha":370,"x_min":1,"x_max":368,"o":"m 1 782 q 2 819 1 797 q 9 865 4 841 q 26 913 15 889 q 58 956 38 937 q 108 986 78 975 q 182 998 138 998 q 321 943 275 998 q 368 782 366 888 l 300 782 q 295 816 299 795 q 278 857 290 837 q 242 891 265 876 q 182 905 219 905 q 99 872 125 905 q 68 782 72 840 l 1 782 z "},"̦":{"ha":353,"x_min":26,"x_max":252,"o":"m 26 -406 l 102 -73 l 252 -73 l 121 -406 l 26 -406 z "},"Ω":{"ha":981,"x_min":76,"x_max":905,"o":"m 76 104 l 264 104 q 200 178 231 137 q 145 269 169 220 q 108 375 122 318 q 94 499 94 433 q 124 676 94 595 q 208 815 155 757 q 335 907 262 874 q 495 940 409 940 q 659 904 587 940 q 782 807 732 867 q 860 668 833 746 q 887 507 887 590 q 872 378 887 438 q 834 268 858 318 q 778 176 810 217 q 713 104 747 134 l 905 104 l 905 0 l 573 0 l 573 76 q 644 140 610 101 q 705 230 679 178 q 748 345 732 281 q 764 485 764 409 q 747 610 764 547 q 695 723 730 673 q 611 804 661 773 q 494 836 560 836 q 380 808 431 836 q 293 733 329 781 q 237 620 256 685 q 218 480 218 555 q 234 346 218 409 q 277 232 250 283 q 337 140 303 180 q 408 76 372 100 l 408 0 l 76 0 l 76 104 z "},"π":{"ha":800,"x_min":33,"x_max":766,"o":"m 652 584 l 652 198 q 658 80 652 129 q 671 0 664 31 l 557 0 q 539 68 546 22 q 532 191 532 115 l 532 584 l 313 584 q 306 492 311 542 q 295 388 302 441 q 280 279 289 334 q 262 173 272 224 q 241 78 252 122 q 218 0 230 33 l 99 0 q 122 84 111 37 q 143 181 134 130 q 162 285 153 231 q 177 391 170 338 q 188 493 183 444 q 194 584 192 542 q 108 578 141 583 q 52 568 75 574 l 33 651 q 111 679 63 667 q 233 690 158 690 l 766 690 l 754 584 l 652 584 z "},"–":{"ha":819,"x_min":101,"x_max":717,"o":"m 101 301 l 101 412 l 717 412 l 717 301 l 101 301 z "},"—":{"ha":1293,"x_min":102,"x_max":1191,"o":"m 102 301 l 102 412 l 1191 412 l 1191 301 l 102 301 z "},"‘":{"ha":351,"x_min":62,"x_max":292,"o":"m 62 623 l 197 955 l 292 955 l 212 623 l 62 623 z "},"’":{"ha":340,"x_min":74,"x_max":300,"o":"m 74 623 l 149 955 l 300 955 l 168 623 l 74 623 z "},"‚":{"ha":347,"x_min":37,"x_max":262,"o":"m 37 -174 l 113 151 l 262 151 l 132 -174 l 37 -174 z "},"“":{"ha":595,"x_min":62,"x_max":538,"o":"m 308 623 l 442 955 l 538 955 l 457 623 l 308 623 m 62 623 l 197 955 l 292 955 l 212 623 l 62 623 z "},"”":{"ha":587,"x_min":74,"x_max":548,"o":"m 321 623 l 397 955 l 548 955 l 415 623 l 321 623 m 74 623 l 149 955 l 300 955 l 168 623 l 74 623 z "},"„":{"ha":593,"x_min":37,"x_max":509,"o":"m 284 -174 l 359 151 l 509 151 l 378 -174 l 284 -174 m 37 -174 l 112 151 l 262 151 l 132 -174 l 37 -174 z "},"†":{"ha":643,"x_min":44,"x_max":599,"o":"m 267 630 l 44 630 l 44 738 l 267 738 l 267 958 l 378 958 l 378 738 l 599 738 l 599 630 l 378 630 l 378 0 l 267 0 l 267 630 z "},"‡":{"ha":728,"x_min":84,"x_max":643,"o":"m 307 222 l 84 222 l 84 330 l 307 330 l 307 630 l 84 630 l 84 739 l 307 739 l 307 958 l 420 958 l 420 739 l 643 739 l 643 630 l 420 630 l 420 330 l 643 330 l 643 222 l 420 222 l 420 0 l 307 0 l 307 222 z "},"•":{"ha":547,"x_min":72,"x_max":475,"o":"m 72 482 q 88 570 72 531 q 131 637 104 610 q 195 679 158 664 q 273 693 231 693 q 352 679 315 693 q 416 636 389 664 q 459 570 444 609 q 475 482 475 531 q 460 395 475 434 q 417 329 444 357 q 352 287 389 302 q 273 272 315 272 q 195 287 231 272 q 131 329 158 302 q 87 395 103 357 q 72 482 72 434 z "},"…":{"ha":1188,"x_min":98,"x_max":1090,"o":"m 98 168 l 250 168 l 250 0 l 98 0 l 98 168 m 517 168 l 671 168 l 671 0 l 517 0 l 517 168 m 937 168 l 1090 168 l 1090 0 l 937 0 l 937 168 z "},"‰":{"ha":1601,"x_min":56,"x_max":1550,"o":"m 161 684 q 165 623 161 654 q 179 566 168 592 q 210 524 190 541 q 264 507 231 507 q 316 524 296 507 q 347 567 336 541 q 361 625 357 593 q 365 685 365 656 q 360 754 365 722 q 344 810 355 786 q 313 848 332 834 q 264 863 294 863 q 210 846 231 863 q 179 803 190 829 q 165 746 168 777 q 161 684 161 714 m 471 688 q 457 571 471 622 q 415 487 442 521 q 349 435 388 453 q 262 418 311 418 q 178 434 216 418 q 113 485 140 451 q 71 568 86 518 q 56 684 56 617 q 68 794 56 745 q 108 879 81 844 q 174 933 134 914 q 269 953 214 953 q 360 933 322 953 q 424 878 399 913 q 460 794 448 842 q 471 688 471 745 m 750 245 q 754 182 750 213 q 769 128 758 151 q 800 90 781 104 q 850 76 819 76 q 903 92 883 76 q 935 133 924 107 q 951 190 947 158 q 955 254 955 222 q 950 318 955 286 q 935 375 946 350 q 903 417 924 401 q 852 433 883 433 q 799 415 819 433 q 768 371 779 398 q 753 310 757 343 q 750 245 750 277 m 1059 256 q 1047 143 1059 193 q 1008 58 1034 94 q 944 4 983 23 q 851 -15 905 -15 q 755 6 794 -15 q 691 64 715 28 q 655 149 666 100 q 644 252 644 197 q 659 368 644 317 q 701 452 673 418 q 766 504 728 486 q 851 521 804 521 q 896 516 872 521 q 943 499 920 511 q 987 468 966 488 q 1024 418 1008 448 q 1050 349 1040 389 q 1059 256 1059 309 m 885 962 q 745 713 814 836 q 605 467 675 590 q 466 221 536 344 q 326 -27 397 98 l 224 -27 l 784 962 l 885 962 m 1241 245 q 1245 182 1241 213 q 1260 128 1249 151 q 1291 90 1272 104 q 1341 76 1310 76 q 1394 92 1374 76 q 1426 133 1415 107 q 1442 190 1438 158 q 1446 254 1446 222 q 1441 318 1446 286 q 1426 375 1437 350 q 1394 417 1415 401 q 1343 433 1374 433 q 1290 415 1310 433 q 1259 371 1270 398 q 1244 310 1248 343 q 1241 245 1241 277 m 1550 256 q 1538 143 1550 193 q 1499 58 1525 94 q 1435 4 1474 23 q 1342 -15 1396 -15 q 1246 6 1285 -15 q 1182 64 1206 28 q 1146 149 1157 100 q 1135 252 1135 197 q 1150 368 1135 317 q 1192 452 1164 418 q 1257 504 1219 486 q 1342 521 1295 521 q 1387 516 1363 521 q 1434 499 1411 511 q 1478 468 1457 488 q 1515 418 1499 448 q 1541 349 1531 389 q 1550 256 1550 309 z "},"‹":{"ha":410,"x_min":63,"x_max":334,"o":"m 235 73 l 63 336 l 63 349 l 236 610 l 332 585 l 191 341 l 334 96 l 235 73 z "},"›":{"ha":410,"x_min":76,"x_max":347,"o":"m 216 340 l 76 585 l 175 610 l 347 347 l 347 334 l 175 73 l 77 96 l 216 340 z "},"⁄":{"ha":617,"x_min":-19,"x_max":633,"o":"m 633 949 l 82 -20 l -19 -20 l 532 949 l 633 949 z "},"⁴":{"ha":640,"x_min":43,"x_max":586,"o":"m 378 193 l 378 355 l 43 355 l 43 465 l 370 943 l 479 943 l 479 449 l 586 449 l 586 355 l 479 355 l 479 193 l 378 193 m 140 449 l 378 449 l 378 630 l 380 825 l 296 686 l 140 449 z "},"€":{"ha":858,"x_min":53,"x_max":778,"o":"m 778 246 q 771 197 777 225 q 753 140 766 169 q 719 82 740 111 q 667 32 698 54 q 592 -4 635 9 q 493 -18 549 -18 q 364 5 420 -18 q 266 70 307 28 q 198 173 224 113 q 158 308 171 233 l 54 308 l 81 398 l 147 398 q 145 421 146 410 q 144 446 144 433 q 145 470 144 455 q 147 494 146 484 l 53 494 l 82 585 l 157 585 q 199 725 170 661 q 271 836 228 789 q 372 907 315 882 q 498 932 429 932 q 601 915 552 932 q 687 863 650 898 q 749 777 725 829 q 776 656 772 725 l 651 656 q 638 723 648 695 q 613 769 628 750 q 581 798 598 787 q 547 814 563 808 q 517 821 530 819 q 498 822 504 822 q 426 805 460 822 q 365 756 393 787 q 318 681 338 724 q 287 585 298 637 l 593 585 l 564 494 l 278 494 q 276 471 277 483 q 275 448 275 460 q 279 398 275 423 l 551 398 l 522 308 l 289 308 q 316 222 299 262 q 357 154 333 183 q 415 109 382 125 q 490 92 448 92 q 605 133 559 92 q 660 251 650 174 l 778 246 z "},"™":{"ha":1087,"x_min":76,"x_max":970,"o":"m 577 831 l 560 894 l 560 475 l 492 475 l 492 960 l 608 960 l 732 576 l 861 960 l 970 960 l 970 475 l 902 475 l 902 897 l 885 834 l 760 475 l 696 475 l 577 831 m 210 893 l 76 893 l 76 960 l 415 960 l 415 893 l 275 893 l 275 475 l 210 475 l 210 893 z "},"∂":{"ha":766,"x_min":70,"x_max":679,"o":"m 557 476 q 558 491 557 484 q 558 507 558 499 q 553 590 558 548 q 537 671 549 632 q 508 745 526 711 q 464 805 490 779 q 403 845 438 830 q 323 859 368 859 q 245 849 288 859 q 155 818 201 839 l 119 901 q 230 941 176 928 q 332 955 283 955 q 481 919 416 955 q 590 815 546 883 q 656 652 634 748 q 679 436 679 556 q 666 279 679 347 q 632 161 654 212 q 580 77 610 111 q 515 23 550 43 q 441 -6 480 3 q 363 -15 403 -15 q 250 4 303 -15 q 157 62 197 24 q 93 159 117 101 q 70 295 70 217 q 91 419 70 366 q 150 510 113 473 q 237 565 186 547 q 346 584 288 584 q 557 476 470 584 m 368 490 q 293 477 326 490 q 237 438 260 463 q 201 377 214 413 q 189 296 189 341 q 201 208 189 247 q 236 140 213 168 q 291 98 258 113 q 364 83 323 83 q 439 100 405 83 q 498 146 473 117 q 537 217 523 176 q 551 304 551 258 q 538 377 551 343 q 501 436 525 410 q 444 476 477 461 q 368 490 410 490 z "},"∆":{"ha":866,"x_min":43,"x_max":823,"o":"m 43 81 l 368 947 l 504 947 l 823 82 l 823 0 l 43 0 l 43 81 m 696 102 l 516 603 l 436 832 l 359 602 l 359 603 l 174 102 l 696 102 z "},"∏":{"ha":952,"x_min":44,"x_max":907,"o":"m 767 809 l 767 -127 l 648 -127 l 648 809 l 304 809 l 304 -127 l 186 -127 l 186 809 l 44 809 l 44 923 l 907 923 l 907 809 l 767 809 z "},"∑":{"ha":788,"x_min":54,"x_max":732,"o":"m 54 -127 l 54 -44 l 397 397 l 69 835 l 69 923 l 710 923 l 710 817 l 233 817 l 537 414 l 207 -9 l 732 -9 l 732 -127 l 54 -127 z "},"−":{"ha":860,"x_min":109,"x_max":751,"o":"m 109 342 l 109 451 l 751 451 l 751 342 l 109 342 z "},"√":{"ha":749,"x_min":-3,"x_max":722,"o":"m 627 1097 l 722 1097 l 427 -192 l 324 -192 l 120 405 l 22 366 l -3 444 l 193 522 l 372 -39 l 627 1097 z "},"∞":{"ha":1063,"x_min":83,"x_max":979,"o":"m 979 382 q 961 292 979 332 q 915 224 944 252 q 848 181 886 197 q 772 166 811 166 q 714 175 742 166 q 657 202 686 184 q 598 253 628 221 q 534 326 569 286 q 479 264 508 295 q 421 212 451 233 q 357 179 391 191 q 285 166 323 166 q 208 182 245 166 q 144 226 172 198 q 100 293 116 254 q 83 378 83 332 q 99 464 83 425 q 144 533 115 504 q 211 578 172 562 q 296 594 250 594 q 363 582 331 594 q 425 550 395 570 q 483 496 455 529 q 538 431 511 463 q 589 491 562 458 q 645 545 615 524 q 708 581 674 567 q 781 594 742 594 q 861 579 825 594 q 923 536 897 564 q 964 469 949 508 q 979 384 979 431 l 979 382 m 297 242 q 348 253 323 242 q 397 283 373 264 q 444 325 421 301 q 489 374 467 349 q 446 427 467 401 q 400 473 425 453 q 349 506 376 494 q 288 519 321 519 q 234 507 258 519 q 195 476 211 496 q 171 431 179 456 q 162 376 162 405 q 172 325 162 349 q 200 282 182 300 q 242 253 218 264 q 296 242 267 242 l 297 242 m 772 519 q 723 508 747 519 q 675 477 699 496 q 627 434 651 458 q 579 382 604 410 q 635 320 610 347 q 684 277 661 294 q 729 251 707 259 q 776 242 751 242 q 829 254 806 242 q 868 286 852 267 q 892 329 884 305 q 900 378 900 353 q 890 436 900 410 q 864 481 881 463 q 824 509 847 499 q 773 519 800 519 l 772 519 z "},"∫":{"ha":481,"x_min":16,"x_max":463,"o":"m 443 1020 q 417 1031 430 1027 q 393 1036 404 1036 q 345 1021 366 1036 q 312 976 325 1007 q 293 897 299 945 q 287 778 287 848 q 290 620 287 701 q 296 457 293 539 q 303 291 300 374 q 306 127 306 208 q 290 -43 306 23 q 247 -148 274 -110 q 184 -199 220 -185 q 109 -214 149 -214 q 58 -206 84 -214 q 16 -190 33 -199 l 35 -99 q 65 -112 51 -106 q 97 -117 79 -117 q 134 -108 116 -117 q 165 -73 152 -100 q 188 1 179 -47 q 196 129 196 50 q 193 296 196 212 q 188 463 191 380 q 182 629 184 547 q 179 789 179 711 q 192 943 179 879 q 231 1048 205 1007 q 295 1109 257 1090 q 384 1128 334 1128 q 426 1122 404 1128 q 463 1109 448 1116 l 443 1020 z "},"≈":{"ha":833,"x_min":103,"x_max":732,"o":"m 732 307 q 698 256 717 280 q 657 214 680 232 q 610 186 635 197 q 556 176 585 176 q 506 183 530 176 q 459 201 481 191 q 414 225 436 212 q 370 249 391 238 q 327 267 349 260 q 283 275 305 275 q 243 267 262 275 q 210 245 225 258 q 180 213 194 231 q 153 176 166 195 l 103 220 q 184 317 136 281 q 292 353 232 353 q 340 346 317 353 q 386 328 363 338 q 429 304 408 317 q 471 280 450 291 q 514 262 492 269 q 557 254 535 254 q 624 279 595 254 q 682 352 652 303 l 732 307 m 732 535 q 698 484 717 508 q 657 443 680 460 q 610 414 635 425 q 556 404 585 404 q 481 419 516 404 q 414 453 447 435 q 350 487 382 472 q 282 503 317 503 q 242 494 260 503 q 209 473 224 486 q 180 441 193 459 q 153 404 166 423 l 104 448 q 185 545 136 509 q 292 581 233 581 q 362 565 329 581 q 428 531 396 550 q 493 497 460 513 q 559 482 525 482 q 624 507 596 482 q 682 581 652 532 l 732 535 z "},"≠":{"ha":791,"x_min":90,"x_max":700,"o":"m 503 545 l 700 545 l 700 466 l 470 466 l 388 286 l 700 286 l 700 207 l 355 207 l 286 52 l 223 80 l 281 207 l 90 207 l 90 286 l 315 286 l 395 466 l 90 466 l 90 545 l 427 545 l 496 697 l 559 669 l 503 545 z "},"≤":{"ha":758,"x_min":44,"x_max":654,"o":"m 52 422 l 52 505 l 649 802 l 649 708 l 136 464 l 650 220 l 650 125 l 52 422 m 44 1 l 44 83 l 654 83 l 654 1 l 44 1 z "},"≥":{"ha":753,"x_min":98,"x_max":707,"o":"m 705 504 l 705 422 l 106 125 l 106 220 l 618 463 l 106 708 l 106 802 l 705 504 m 98 1 l 98 83 l 707 83 l 707 1 l 98 1 z "},"◊":{"ha":709,"x_min":43,"x_max":667,"o":"m 400 -60 l 305 -60 l 43 461 l 308 983 l 404 983 l 667 460 l 400 -60 m 355 871 l 153 463 l 355 44 l 556 458 l 355 871 z "},"":{"ha":0,"x_min":0,"x_max":0,"o":""},"ﬁ":{"ha":817,"x_min":29,"x_max":722,"o":"m 709 0 l 583 0 l 583 587 l 285 587 l 285 0 l 157 0 l 157 587 l 29 587 l 29 676 l 157 688 l 157 720 q 160 781 157 755 q 167 828 162 808 q 179 865 172 849 q 199 895 187 881 q 264 941 224 925 q 363 958 305 958 q 422 952 391 958 q 481 940 453 947 q 473 888 477 912 q 465 837 469 864 q 422 844 444 841 q 380 847 400 847 q 331 840 349 847 q 302 819 312 833 q 288 785 292 806 q 285 736 285 764 l 285 688 l 709 688 l 709 0 m 722 934 l 722 817 l 571 817 l 571 934 l 722 934 z "},"ﬂ":{"ha":810,"x_min":29,"x_max":695,"o":"m 567 855 l 380 855 q 331 847 349 855 q 302 823 312 839 q 288 786 292 808 q 285 736 285 764 l 285 688 l 440 688 l 440 587 l 285 587 l 285 0 l 157 0 l 157 587 l 29 587 l 29 676 l 157 688 l 157 720 q 160 781 157 755 q 167 828 162 808 q 179 865 172 849 q 199 895 187 881 q 264 941 224 925 q 363 958 305 958 l 695 958 l 695 0 l 567 0 l 567 855 z "}}}
